<?xml version="1.0" encoding="UTF-8" standalone="no"?>
<svg width="574.322mm" height="292.1mm"
 xmlns="http://www.w3.org/2000/svg" xmlns:xlink="http://www.w3.org/1999/xlink"  version="1.2" baseProfile="tiny">
<title>Qt SVG Document</title>
<desc>Generated with Qt</desc>
<defs>
</defs>
<g fill="none" stroke="black" stroke-width="1" fill-rule="evenodd" stroke-linecap="square" stroke-linejoin="bevel" >

<g fill="none" stroke="#000000" stroke-opacity="1" stroke-width="1" stroke-linecap="square" stroke-linejoin="bevel" transform="matrix(1,0,0,1,0,0)"
font-family="MS Shell Dlg 2" font-size="24" font-weight="400" font-style="normal" 
>
<text fill="#000000" fill-opacity="1" stroke="none" xml:space="preserve" x="2" y="963" font-family="MS Shell Dlg 2" font-size="24" font-weight="400" font-style="normal" 
 >(file cwiczenie-4-rebuilt.pl4; x-var t)  </text>
</g>

<g fill="none" stroke="#0000ff" stroke-opacity="1" stroke-width="1" stroke-linecap="square" stroke-linejoin="bevel" transform="matrix(1,0,0,1,0,0)"
font-family="MS Shell Dlg 2" font-size="24" font-weight="400" font-style="normal" 
>
<text fill="#0000ff" fill-opacity="1" stroke="none" xml:space="preserve" x="397" y="963" font-family="MS Shell Dlg 2" font-size="24" font-weight="400" font-style="normal" 
 >v:XX0003-XX0006    </text>
</g>

<g fill="none" stroke="#000000" stroke-opacity="1" stroke-width="5" stroke-linecap="square" stroke-linejoin="bevel" transform="matrix(1,0,0,1,0,0)"
font-family="MS Shell Dlg 2" font-size="24" font-weight="400" font-style="normal" 
>
<rect x="83" y="30" width="1799" height="847"/>
</g>

<g fill="none" stroke="#000000" stroke-opacity="1" stroke-width="1" stroke-linecap="square" stroke-linejoin="bevel" transform="matrix(1,0,0,1,0,0)"
font-family="MS Shell Dlg 2" font-size="24" font-weight="400" font-style="normal" 
>
<text fill="#000000" fill-opacity="1" stroke="none" xml:space="preserve" x="77" y="919" font-family="MS Shell Dlg 2" font-size="24" font-weight="400" font-style="normal" 
 >0</text>
</g>

<g fill="none" stroke="#000000" stroke-opacity="1" stroke-width="1" stroke-linecap="square" stroke-linejoin="bevel" transform="matrix(1,0,0,1,0,0)"
font-family="MS Shell Dlg 2" font-size="24" font-weight="400" font-style="normal" 
>
<text fill="#000000" fill-opacity="1" stroke="none" xml:space="preserve" x="377" y="919" font-family="MS Shell Dlg 2" font-size="24" font-weight="400" font-style="normal" 
 >5</text>
</g>

<g fill="none" stroke="#000000" stroke-opacity="1" stroke-width="1" stroke-linecap="square" stroke-linejoin="bevel" transform="matrix(1,0,0,1,0,0)"
font-family="MS Shell Dlg 2" font-size="24" font-weight="400" font-style="normal" 
>
<text fill="#000000" fill-opacity="1" stroke="none" xml:space="preserve" x="669" y="919" font-family="MS Shell Dlg 2" font-size="24" font-weight="400" font-style="normal" 
 >10</text>
</g>

<g fill="none" stroke="#000000" stroke-opacity="1" stroke-width="1" stroke-linecap="square" stroke-linejoin="bevel" transform="matrix(1,0,0,1,0,0)"
font-family="MS Shell Dlg 2" font-size="24" font-weight="400" font-style="normal" 
>
<text fill="#000000" fill-opacity="1" stroke="none" xml:space="preserve" x="969" y="919" font-family="MS Shell Dlg 2" font-size="24" font-weight="400" font-style="normal" 
 >15</text>
</g>

<g fill="none" stroke="#000000" stroke-opacity="1" stroke-width="1" stroke-linecap="square" stroke-linejoin="bevel" transform="matrix(1,0,0,1,0,0)"
font-family="MS Shell Dlg 2" font-size="24" font-weight="400" font-style="normal" 
>
<text fill="#000000" fill-opacity="1" stroke="none" xml:space="preserve" x="1269" y="919" font-family="MS Shell Dlg 2" font-size="24" font-weight="400" font-style="normal" 
 >20</text>
</g>

<g fill="none" stroke="#000000" stroke-opacity="1" stroke-width="1" stroke-linecap="square" stroke-linejoin="bevel" transform="matrix(1,0,0,1,0,0)"
font-family="MS Shell Dlg 2" font-size="24" font-weight="400" font-style="normal" 
>
<text fill="#000000" fill-opacity="1" stroke="none" xml:space="preserve" x="1568" y="919" font-family="MS Shell Dlg 2" font-size="24" font-weight="400" font-style="normal" 
 >25</text>
</g>

<g fill="none" stroke="#000000" stroke-opacity="1" stroke-width="1" stroke-linecap="square" stroke-linejoin="bevel" transform="matrix(1,0,0,1,0,0)"
font-family="MS Shell Dlg 2" font-size="24" font-weight="400" font-style="normal" 
>
<text fill="#000000" fill-opacity="1" stroke="none" xml:space="preserve" x="1868" y="919" font-family="MS Shell Dlg 2" font-size="24" font-weight="400" font-style="normal" 
 >30</text>
</g>

<g fill="none" stroke="#000000" stroke-opacity="1" stroke-width="1" stroke-linecap="square" stroke-linejoin="bevel" transform="matrix(1,0,0,1,0,0)"
font-family="MS Shell Dlg 2" font-size="24" font-weight="400" font-style="normal" 
>
<text fill="#000000" fill-opacity="1" stroke="none" xml:space="preserve" x="1707" y="919" font-family="MS Shell Dlg 2" font-size="24" font-weight="400" font-style="normal" 
 >(</text>
</g>

<g fill="none" stroke="#000000" stroke-opacity="1" stroke-width="1" stroke-linecap="square" stroke-linejoin="bevel" transform="matrix(1,0,0,1,0,0)"
font-family="MS Shell Dlg 2" font-size="24" font-weight="400" font-style="normal" 
>
<text fill="#000000" fill-opacity="1" stroke="none" xml:space="preserve" x="1716" y="919" font-family="MS Shell Dlg 2" font-size="24" font-weight="400" font-style="normal" 
 >m</text>
</g>

<g fill="none" stroke="#000000" stroke-opacity="1" stroke-width="1" stroke-linecap="square" stroke-linejoin="bevel" transform="matrix(1,0,0,1,0,0)"
font-family="MS Shell Dlg 2" font-size="24" font-weight="400" font-style="normal" 
>
<text fill="#000000" fill-opacity="1" stroke="none" xml:space="preserve" x="1736" y="919" font-family="MS Shell Dlg 2" font-size="24" font-weight="400" font-style="normal" 
 >s</text>
</g>

<g fill="none" stroke="#000000" stroke-opacity="1" stroke-width="1" stroke-linecap="square" stroke-linejoin="bevel" transform="matrix(1,0,0,1,0,0)"
font-family="MS Shell Dlg 2" font-size="24" font-weight="400" font-style="normal" 
>
<text fill="#000000" fill-opacity="1" stroke="none" xml:space="preserve" x="1747" y="919" font-family="MS Shell Dlg 2" font-size="24" font-weight="400" font-style="normal" 
 >)</text>
</g>

<g fill="none" stroke="#000000" stroke-opacity="1" stroke-width="5" stroke-linecap="square" stroke-linejoin="bevel" transform="matrix(1,0,0,1,0,0)"
font-family="MS Shell Dlg 2" font-size="24" font-weight="400" font-style="normal" 
>
<path vector-effect="none" fill-rule="evenodd" d="M83,877 L83,891 M383,877 L383,891 M682,877 L682,891 M982,877 L982,891 M1282,877 L1282,891 M1581,877 L1581,891 M1881,877 L1881,891"/>
</g>

<g fill="none" stroke="#000000" stroke-opacity="1" stroke-dasharray="1,2" stroke-dashoffset="0" stroke-width="1" stroke-linecap="square" stroke-linejoin="bevel" transform="matrix(1,0,0,1,0,0)"
font-family="MS Shell Dlg 2" font-size="24" font-weight="400" font-style="normal" 
>
<path vector-effect="none" fill-rule="evenodd" d=""/>
</g>

<g fill="none" stroke="#000000" stroke-opacity="1" stroke-dasharray="1,2" stroke-dashoffset="0" stroke-width="1" stroke-linecap="square" stroke-linejoin="bevel" transform="matrix(1,0,0,1,0,0)"
font-family="MS Shell Dlg 2" font-size="24" font-weight="400" font-style="normal" 
>
<text fill="#000000" fill-opacity="1" stroke="none" xml:space="preserve" x="5" y="886" font-family="MS Shell Dlg 2" font-size="24" font-weight="400" font-style="normal" 
 >-70.0</text>
</g>

<g fill="none" stroke="#000000" stroke-opacity="1" stroke-dasharray="1,2" stroke-dashoffset="0" stroke-width="1" stroke-linecap="square" stroke-linejoin="bevel" transform="matrix(1,0,0,1,0,0)"
font-family="MS Shell Dlg 2" font-size="24" font-weight="400" font-style="normal" 
>
<text fill="#000000" fill-opacity="1" stroke="none" xml:space="preserve" x="5" y="780" font-family="MS Shell Dlg 2" font-size="24" font-weight="400" font-style="normal" 
 >-52.5</text>
</g>

<g fill="none" stroke="#000000" stroke-opacity="1" stroke-dasharray="1,2" stroke-dashoffset="0" stroke-width="1" stroke-linecap="square" stroke-linejoin="bevel" transform="matrix(1,0,0,1,0,0)"
font-family="MS Shell Dlg 2" font-size="24" font-weight="400" font-style="normal" 
>
<text fill="#000000" fill-opacity="1" stroke="none" xml:space="preserve" x="5" y="675" font-family="MS Shell Dlg 2" font-size="24" font-weight="400" font-style="normal" 
 >-35.0</text>
</g>

<g fill="none" stroke="#000000" stroke-opacity="1" stroke-dasharray="1,2" stroke-dashoffset="0" stroke-width="1" stroke-linecap="square" stroke-linejoin="bevel" transform="matrix(1,0,0,1,0,0)"
font-family="MS Shell Dlg 2" font-size="24" font-weight="400" font-style="normal" 
>
<text fill="#000000" fill-opacity="1" stroke="none" xml:space="preserve" x="5" y="569" font-family="MS Shell Dlg 2" font-size="24" font-weight="400" font-style="normal" 
 >-17.5</text>
</g>

<g fill="none" stroke="#000000" stroke-opacity="1" stroke-dasharray="1,2" stroke-dashoffset="0" stroke-width="1" stroke-linecap="square" stroke-linejoin="bevel" transform="matrix(1,0,0,1,0,0)"
font-family="MS Shell Dlg 2" font-size="24" font-weight="400" font-style="normal" 
>
<text fill="#000000" fill-opacity="1" stroke="none" xml:space="preserve" x="27" y="463" font-family="MS Shell Dlg 2" font-size="24" font-weight="400" font-style="normal" 
 >0.0</text>
</g>

<g fill="none" stroke="#000000" stroke-opacity="1" stroke-dasharray="1,2" stroke-dashoffset="0" stroke-width="1" stroke-linecap="square" stroke-linejoin="bevel" transform="matrix(1,0,0,1,0,0)"
font-family="MS Shell Dlg 2" font-size="24" font-weight="400" font-style="normal" 
>
<text fill="#000000" fill-opacity="1" stroke="none" xml:space="preserve" x="14" y="357" font-family="MS Shell Dlg 2" font-size="24" font-weight="400" font-style="normal" 
 >17.5</text>
</g>

<g fill="none" stroke="#000000" stroke-opacity="1" stroke-dasharray="1,2" stroke-dashoffset="0" stroke-width="1" stroke-linecap="square" stroke-linejoin="bevel" transform="matrix(1,0,0,1,0,0)"
font-family="MS Shell Dlg 2" font-size="24" font-weight="400" font-style="normal" 
>
<text fill="#000000" fill-opacity="1" stroke="none" xml:space="preserve" x="14" y="252" font-family="MS Shell Dlg 2" font-size="24" font-weight="400" font-style="normal" 
 >35.0</text>
</g>

<g fill="none" stroke="#000000" stroke-opacity="1" stroke-dasharray="1,2" stroke-dashoffset="0" stroke-width="1" stroke-linecap="square" stroke-linejoin="bevel" transform="matrix(1,0,0,1,0,0)"
font-family="MS Shell Dlg 2" font-size="24" font-weight="400" font-style="normal" 
>
<text fill="#000000" fill-opacity="1" stroke="none" xml:space="preserve" x="14" y="146" font-family="MS Shell Dlg 2" font-size="24" font-weight="400" font-style="normal" 
 >52.5</text>
</g>

<g fill="none" stroke="#000000" stroke-opacity="1" stroke-dasharray="1,2" stroke-dashoffset="0" stroke-width="1" stroke-linecap="square" stroke-linejoin="bevel" transform="matrix(1,0,0,1,0,0)"
font-family="MS Shell Dlg 2" font-size="24" font-weight="400" font-style="normal" 
>
<text fill="#000000" fill-opacity="1" stroke="none" xml:space="preserve" x="14" y="40" font-family="MS Shell Dlg 2" font-size="24" font-weight="400" font-style="normal" 
 >70.0</text>
</g>

<g fill="none" stroke="#000000" stroke-opacity="1" stroke-dasharray="1,2" stroke-dashoffset="0" stroke-width="1" stroke-linecap="square" stroke-linejoin="bevel" transform="matrix(1,0,0,1,0,0)"
font-family="MS Shell Dlg 2" font-size="24" font-weight="400" font-style="normal" 
>
<text fill="#000000" fill-opacity="1" stroke="none" xml:space="preserve" x="25" y="95" font-family="MS Shell Dlg 2" font-size="24" font-weight="400" font-style="normal" 
 >(</text>
</g>

<g fill="none" stroke="#000000" stroke-opacity="1" stroke-dasharray="1,2" stroke-dashoffset="0" stroke-width="1" stroke-linecap="square" stroke-linejoin="bevel" transform="matrix(1,0,0,1,0,0)"
font-family="MS Shell Dlg 2" font-size="24" font-weight="400" font-style="normal" 
>
<text fill="#000000" fill-opacity="1" stroke="none" xml:space="preserve" x="34" y="95" font-family="MS Shell Dlg 2" font-size="24" font-weight="400" font-style="normal" 
 >V</text>
</g>

<g fill="none" stroke="#000000" stroke-opacity="1" stroke-dasharray="1,2" stroke-dashoffset="0" stroke-width="1" stroke-linecap="square" stroke-linejoin="bevel" transform="matrix(1,0,0,1,0,0)"
font-family="MS Shell Dlg 2" font-size="24" font-weight="400" font-style="normal" 
>
<text fill="#000000" fill-opacity="1" stroke="none" xml:space="preserve" x="48" y="95" font-family="MS Shell Dlg 2" font-size="24" font-weight="400" font-style="normal" 
 >)</text>
</g>

<g fill="none" stroke="#000000" stroke-opacity="1" stroke-width="5" stroke-linecap="square" stroke-linejoin="bevel" transform="matrix(1,0,0,1,0,0)"
font-family="MS Shell Dlg 2" font-size="24" font-weight="400" font-style="normal" 
>
<path vector-effect="none" fill-rule="evenodd" d="M82,876 L68,876 M82,770 L68,770 M82,665 L68,665 M82,559 L68,559 M82,453 L68,453 M82,347 L68,347 M82,242 L68,242 M82,136 L68,136 M82,30 L68,30"/>
</g>

<g fill="none" stroke="#000000" stroke-opacity="1" stroke-dasharray="1,2" stroke-dashoffset="0" stroke-width="1" stroke-linecap="square" stroke-linejoin="bevel" transform="matrix(1,0,0,1,0,0)"
font-family="MS Shell Dlg 2" font-size="24" font-weight="400" font-style="normal" 
>
<path vector-effect="none" fill-rule="evenodd" d=""/>
</g>

<g fill="none" stroke="#0000ff" stroke-opacity="1" stroke-width="5" stroke-linecap="square" stroke-linejoin="bevel" transform="matrix(1,0,0,1,0,0)"
font-family="MS Shell Dlg 2" font-size="24" font-weight="400" font-style="normal" 
>
<polyline fill="none" vector-effect="none" points="83,300 83.5599,300.747 " />
<polyline fill="none" vector-effect="none" points="83.5599,300.747 105.016,262.249 " />
<polyline fill="none" vector-effect="none" points="105.016,262.249 124.075,230.064 " />
<polyline fill="none" vector-effect="none" points="124.075,230.064 141.336,202.831 " />
<polyline fill="none" vector-effect="none" points="141.336,202.831 157.338,179.41 " />
<polyline fill="none" vector-effect="none" points="157.338,179.41 172.261,159.301 " />
<polyline fill="none" vector-effect="none" points="172.261,159.301 186.346,141.972 " />
<polyline fill="none" vector-effect="none" points="186.346,141.972 199.591,127.222 " />
<polyline fill="none" vector-effect="none" points="199.591,127.222 212.237,114.606 " />
<polyline fill="none" vector-effect="none" points="212.237,114.606 224.283,103.972 " />
<polyline fill="none" vector-effect="none" points="224.283,103.972 235.851,95.0708 " />
<polyline fill="none" vector-effect="none" points="235.851,95.0708 246.998,87.7391 " />
<polyline fill="none" vector-effect="none" points="246.998,87.7391 257.726,81.862 " />
<polyline fill="none" vector-effect="none" points="257.726,81.862 268.155,77.2751 " />
<polyline fill="none" vector-effect="none" points="268.155,77.2751 278.343,73.879 " />
<polyline fill="none" vector-effect="none" points="278.343,73.879 288.292,71.6074 " />
<polyline fill="none" vector-effect="none" points="288.292,71.6074 298.121,70.3828 " />
<polyline fill="none" vector-effect="none" points="298.121,70.3828 307.89,70.1732 " />
<polyline fill="none" vector-effect="none" points="307.89,70.1732 317.6,70.9606 " />
<polyline fill="none" vector-effect="none" points="317.6,70.9606 327.369,72.7527 " />
<polyline fill="none" vector-effect="none" points="327.369,72.7527 337.318,75.6037 " />
<polyline fill="none" vector-effect="none" points="337.318,75.6037 347.387,79.5351 " />
<polyline fill="none" vector-effect="none" points="347.387,79.5351 357.755,84.6718 " />
<polyline fill="none" vector-effect="none" points="357.755,84.6718 368.363,91.0544 " />
<polyline fill="none" vector-effect="none" points="368.363,91.0544 379.451,98.9227 " />
<polyline fill="none" vector-effect="none" points="379.451,98.9227 390.838,108.25 " />
<polyline fill="none" vector-effect="none" points="390.838,108.25 402.645,119.218 " />
<polyline fill="none" vector-effect="none" points="402.645,119.218 415.051,132.122 " />
<polyline fill="none" vector-effect="none" points="415.051,132.122 428.177,147.252 " />
<polyline fill="none" vector-effect="none" points="428.177,147.252 441.901,164.621 " />
<polyline fill="none" vector-effect="none" points="441.901,164.621 456.405,184.598 " />
<polyline fill="none" vector-effect="none" points="456.405,184.598 471.988,207.789 " />
<polyline fill="none" vector-effect="none" points="471.988,207.789 488.949,234.888 " />
<polyline fill="none" vector-effect="none" points="488.949,234.888 507.528,266.546 " />
<polyline fill="none" vector-effect="none" points="507.528,266.546 528.026,303.516 " />
<polyline fill="none" vector-effect="none" points="528.026,303.516 551.759,348.454 " />
<polyline fill="none" vector-effect="none" points="551.759,348.454 582.265,408.501 " />
<polyline fill="none" vector-effect="none" points="582.265,408.501 666.951,576.37 " />
<polyline fill="none" vector-effect="none" points="666.951,576.37 690.325,619.831 " />
<polyline fill="none" vector-effect="none" points="690.325,619.831 710.822,655.912 " />
<polyline fill="none" vector-effect="none" points="710.822,655.912 728.862,685.749 " />
<polyline fill="none" vector-effect="none" points="728.862,685.749 745.703,711.736 " />
<polyline fill="none" vector-effect="none" points="745.703,711.736 761.406,734.158 " />
<polyline fill="none" vector-effect="none" points="761.406,734.158 776.09,753.408 " />
<polyline fill="none" vector-effect="none" points="776.09,753.408 789.754,769.729 " />
<polyline fill="none" vector-effect="none" points="789.754,769.729 802.76,783.758 " />
<polyline fill="none" vector-effect="none" points="802.76,783.758 815.106,795.657 " />
<polyline fill="none" vector-effect="none" points="815.106,795.657 827.033,805.792 " />
<polyline fill="none" vector-effect="none" points="827.033,805.792 838.36,814.144 " />
<polyline fill="none" vector-effect="none" points="838.36,814.144 849.388,821.054 " />
<polyline fill="none" vector-effect="none" points="849.388,821.054 859.996,826.543 " />
<polyline fill="none" vector-effect="none" points="859.996,826.543 870.425,830.814 " />
<polyline fill="none" vector-effect="none" points="870.425,830.814 880.553,833.884 " />
<polyline fill="none" vector-effect="none" points="880.553,833.884 890.502,835.856 " />
<polyline fill="none" vector-effect="none" points="890.502,835.856 900.272,836.781 " />
<polyline fill="none" vector-effect="none" points="900.272,836.781 910.041,836.701 " />
<polyline fill="none" vector-effect="none" points="910.041,836.701 919.69,835.635 " />
<polyline fill="none" vector-effect="none" points="919.69,835.635 929.579,833.529 " />
<polyline fill="none" vector-effect="none" points="929.579,833.529 939.588,830.358 " />
<polyline fill="none" vector-effect="none" points="939.588,830.358 949.717,826.093 " />
<polyline fill="none" vector-effect="none" points="949.717,826.093 960.205,820.571 " />
<polyline fill="none" vector-effect="none" points="960.205,820.571 970.993,813.733 " />
<polyline fill="none" vector-effect="none" points="970.993,813.733 982.081,805.506 " />
<polyline fill="none" vector-effect="none" points="982.081,805.506 982.56,805.123 " />
<polyline fill="none" vector-effect="none" points="982.56,805.123 982.74,349.826 " />
<polyline fill="none" vector-effect="none" points="982.74,349.826 982.86,167.286 " />
<polyline fill="none" vector-effect="none" points="982.86,167.286 983.099,724.057 " />
<polyline fill="none" vector-effect="none" points="983.099,724.057 983.339,198.217 " />
<polyline fill="none" vector-effect="none" points="983.339,198.217 983.579,693.936 " />
<polyline fill="none" vector-effect="none" points="983.579,693.936 983.819,227.452 " />
<polyline fill="none" vector-effect="none" points="983.819,227.452 984.058,665.649 " />
<polyline fill="none" vector-effect="none" points="984.058,665.649 984.298,254.741 " />
<polyline fill="none" vector-effect="none" points="984.298,254.741 984.538,639.393 " />
<polyline fill="none" vector-effect="none" points="984.538,639.393 984.778,279.937 " />
<polyline fill="none" vector-effect="none" points="984.778,279.937 985.017,615.272 " />
<polyline fill="none" vector-effect="none" points="985.017,615.272 985.257,302.977 " />
<polyline fill="none" vector-effect="none" points="985.257,302.977 985.497,593.314 " />
<polyline fill="none" vector-effect="none" points="985.497,593.314 985.736,323.86 " />
<polyline fill="none" vector-effect="none" points="985.736,323.86 985.976,573.494 " />
<polyline fill="none" vector-effect="none" points="985.976,573.494 986.156,394.051 " />
<polyline fill="none" vector-effect="none" points="986.156,394.051 986.216,342.634 " />
<polyline fill="none" vector-effect="none" points="986.216,342.634 986.336,422.615 " />
<polyline fill="none" vector-effect="none" points="986.336,422.615 986.456,555.744 " />
<polyline fill="none" vector-effect="none" points="986.456,555.744 986.576,486.417 " />
<polyline fill="none" vector-effect="none" points="986.576,486.417 986.695,359.385 " />
<polyline fill="none" vector-effect="none" points="986.695,359.385 986.755,364.197 " />
<polyline fill="none" vector-effect="none" points="986.755,364.197 986.935,539.965 " />
<polyline fill="none" vector-effect="none" points="986.935,539.965 986.995,538.367 " />
<polyline fill="none" vector-effect="none" points="986.995,538.367 987.235,373.01 " />
<polyline fill="none" vector-effect="none" points="987.235,373.01 987.474,529.69 " />
<polyline fill="none" vector-effect="none" points="987.474,529.69 987.714,381.515 " />
<polyline fill="none" vector-effect="none" points="987.714,381.515 987.954,521.386 " />
<polyline fill="none" vector-effect="none" points="987.954,521.386 988.194,389.595 " />
<polyline fill="none" vector-effect="none" points="988.194,389.595 988.433,513.551 " />
<polyline fill="none" vector-effect="none" points="988.433,513.551 988.673,397.169 " />
<polyline fill="none" vector-effect="none" points="988.673,397.169 988.913,506.25 " />
<polyline fill="none" vector-effect="none" points="988.913,506.25 989.153,404.188 " />
<polyline fill="none" vector-effect="none" points="989.153,404.188 989.392,499.518 " />
<polyline fill="none" vector-effect="none" points="989.392,499.518 989.632,410.629 " />
<polyline fill="none" vector-effect="none" points="989.632,410.629 989.872,493.371 " />
<polyline fill="none" vector-effect="none" points="989.872,493.371 990.112,416.484 " />
<polyline fill="none" vector-effect="none" points="990.112,416.484 990.351,487.805 " />
<polyline fill="none" vector-effect="none" points="990.351,487.805 990.591,421.763 " />
<polyline fill="none" vector-effect="none" points="990.591,421.763 990.771,468.953 " />
<polyline fill="none" vector-effect="none" points="990.771,468.953 990.831,482.807 " />
<polyline fill="none" vector-effect="none" points="990.831,482.807 990.951,462.02 " />
<polyline fill="none" vector-effect="none" points="990.951,462.02 991.07,426.486 " />
<polyline fill="none" vector-effect="none" points="991.07,426.486 991.19,444.467 " />
<polyline fill="none" vector-effect="none" points="991.19,444.467 991.31,478.353 " />
<polyline fill="none" vector-effect="none" points="991.31,478.353 991.37,477.309 " />
<polyline fill="none" vector-effect="none" points="991.37,477.309 991.55,430.68 " />
<polyline fill="none" vector-effect="none" points="991.55,430.68 991.61,430.887 " />
<polyline fill="none" vector-effect="none" points="991.61,430.887 991.85,474.935 " />
<polyline fill="none" vector-effect="none" points="991.85,474.935 992.089,433.221 " />
<polyline fill="none" vector-effect="none" points="992.089,433.221 992.329,472.649 " />
<polyline fill="none" vector-effect="none" points="992.329,472.649 992.569,435.45 " />
<polyline fill="none" vector-effect="none" points="992.569,435.45 992.809,470.483 " />
<polyline fill="none" vector-effect="none" points="992.809,470.483 993.048,437.549 " />
<polyline fill="none" vector-effect="none" points="993.048,437.549 993.288,468.455 " />
<polyline fill="none" vector-effect="none" points="993.288,468.455 993.528,439.502 " />
<polyline fill="none" vector-effect="none" points="993.528,439.502 993.768,466.579 " />
<polyline fill="none" vector-effect="none" points="993.768,466.579 994.007,441.3 " />
<polyline fill="none" vector-effect="none" points="994.007,441.3 994.247,464.86 " />
<polyline fill="none" vector-effect="none" points="994.247,464.86 994.487,442.94 " />
<polyline fill="none" vector-effect="none" points="994.487,442.94 994.726,463.299 " />
<polyline fill="none" vector-effect="none" points="994.726,463.299 994.966,444.423 " />
<polyline fill="none" vector-effect="none" points="994.966,444.423 995.206,461.893 " />
<polyline fill="none" vector-effect="none" points="995.206,461.893 995.326,455.682 " />
<polyline fill="none" vector-effect="none" points="995.326,455.682 995.446,445.754 " />
<polyline fill="none" vector-effect="none" points="995.446,445.754 995.565,451.153 " />
<polyline fill="none" vector-effect="none" points="995.565,451.153 995.685,460.636 " />
<polyline fill="none" vector-effect="none" points="995.685,460.636 995.805,455.976 " />
<polyline fill="none" vector-effect="none" points="995.805,455.976 995.925,446.938 " />
<polyline fill="none" vector-effect="none" points="995.925,446.938 995.985,447.154 " />
<polyline fill="none" vector-effect="none" points="995.985,447.154 996.225,459.524 " />
<polyline fill="none" vector-effect="none" points="996.225,459.524 996.464,447.793 " />
<polyline fill="none" vector-effect="none" points="996.464,447.793 996.704,458.897 " />
<polyline fill="none" vector-effect="none" points="996.704,458.897 996.944,448.407 " />
<polyline fill="none" vector-effect="none" points="996.944,448.407 997.184,458.298 " />
<polyline fill="none" vector-effect="none" points="997.184,458.298 997.423,448.987 " />
<polyline fill="none" vector-effect="none" points="997.423,448.987 997.663,457.736 " />
<polyline fill="none" vector-effect="none" points="997.663,457.736 997.903,449.53 " />
<polyline fill="none" vector-effect="none" points="997.903,449.53 998.143,457.214 " />
<polyline fill="none" vector-effect="none" points="998.143,457.214 998.382,450.032 " />
<polyline fill="none" vector-effect="none" points="998.382,450.032 998.622,456.734 " />
<polyline fill="none" vector-effect="none" points="998.622,456.734 998.862,450.49 " />
<polyline fill="none" vector-effect="none" points="998.862,450.49 999.102,456.296 " />
<polyline fill="none" vector-effect="none" points="999.102,456.296 999.341,450.907 " />
<polyline fill="none" vector-effect="none" points="999.341,450.907 999.581,455.901 " />
<polyline fill="none" vector-effect="none" points="999.581,455.901 999.761,452.299 " />
<polyline fill="none" vector-effect="none" points="999.761,452.299 999.821,451.281 " />
<polyline fill="none" vector-effect="none" points="999.821,451.281 999.941,452.896 " />
<polyline fill="none" vector-effect="none" points="999.941,452.896 1000.06,455.547 " />
<polyline fill="none" vector-effect="none" points="1000.06,455.547 1000.18,454.145 " />
<polyline fill="none" vector-effect="none" points="1000.18,454.145 1000.3,451.615 " />
<polyline fill="none" vector-effect="none" points="1000.3,451.615 1000.42,452.822 " />
<polyline fill="none" vector-effect="none" points="1000.42,452.822 1000.54,455.232 " />
<polyline fill="none" vector-effect="none" points="1000.54,455.232 1000.6,455.191 " />
<polyline fill="none" vector-effect="none" points="1000.6,455.191 1000.84,451.895 " />
<polyline fill="none" vector-effect="none" points="1000.84,451.895 1001.08,455.019 " />
<polyline fill="none" vector-effect="none" points="1001.08,455.019 1001.32,452.064 " />
<polyline fill="none" vector-effect="none" points="1001.32,452.064 1001.56,454.855 " />
<polyline fill="none" vector-effect="none" points="1001.56,454.855 1001.8,452.225 " />
<polyline fill="none" vector-effect="none" points="1001.8,452.225 1002.04,454.699 " />
<polyline fill="none" vector-effect="none" points="1002.04,454.699 1002.28,452.375 " />
<polyline fill="none" vector-effect="none" points="1002.28,452.375 1002.52,454.554 " />
<polyline fill="none" vector-effect="none" points="1002.52,454.554 1002.76,452.515 " />
<polyline fill="none" vector-effect="none" points="1002.76,452.515 1003,454.42 " />
<polyline fill="none" vector-effect="none" points="1003,454.42 1003.24,452.643 " />
<polyline fill="none" vector-effect="none" points="1003.24,452.643 1003.48,454.297 " />
<polyline fill="none" vector-effect="none" points="1003.48,454.297 1003.72,452.76 " />
<polyline fill="none" vector-effect="none" points="1003.72,452.76 1003.96,454.186 " />
<polyline fill="none" vector-effect="none" points="1003.96,454.186 1004.2,452.865 " />
<polyline fill="none" vector-effect="none" points="1004.2,452.865 1004.44,454.087 " />
<polyline fill="none" vector-effect="none" points="1004.44,454.087 1004.62,453.23 " />
<polyline fill="none" vector-effect="none" points="1004.62,453.23 1004.68,452.959 " />
<polyline fill="none" vector-effect="none" points="1004.68,452.959 1004.8,453.323 " />
<polyline fill="none" vector-effect="none" points="1004.8,453.323 1004.92,453.998 " />
<polyline fill="none" vector-effect="none" points="1004.92,453.998 1005.03,453.685 " />
<polyline fill="none" vector-effect="none" points="1005.03,453.685 1005.21,453.049 " />
<polyline fill="none" vector-effect="none" points="1005.21,453.049 1005.45,453.927 " />
<polyline fill="none" vector-effect="none" points="1005.45,453.927 1005.69,453.096 " />
<polyline fill="none" vector-effect="none" points="1005.69,453.096 1005.93,453.882 " />
<polyline fill="none" vector-effect="none" points="1005.93,453.882 1006.17,453.14 " />
<polyline fill="none" vector-effect="none" points="1006.17,453.14 1006.41,453.839 " />
<polyline fill="none" vector-effect="none" points="1006.41,453.839 1006.65,453.182 " />
<polyline fill="none" vector-effect="none" points="1006.65,453.182 1006.89,453.799 " />
<polyline fill="none" vector-effect="none" points="1006.89,453.799 1007.13,453.22 " />
<polyline fill="none" vector-effect="none" points="1007.13,453.22 1007.37,453.761 " />
<polyline fill="none" vector-effect="none" points="1007.37,453.761 1007.61,453.256 " />
<polyline fill="none" vector-effect="none" points="1007.61,453.256 1007.85,453.727 " />
<polyline fill="none" vector-effect="none" points="1007.85,453.727 1008.15,453.335 " />
<polyline fill="none" vector-effect="none" points="1008.15,453.335 1008.33,453.696 " />
<polyline fill="none" vector-effect="none" points="1008.33,453.696 1008.63,453.348 " />
<polyline fill="none" vector-effect="none" points="1008.63,453.348 1008.87,453.646 " />
<polyline fill="none" vector-effect="none" points="1008.87,453.646 1009.11,453.361 " />
<polyline fill="none" vector-effect="none" points="1009.11,453.361 1009.35,453.633 " />
<polyline fill="none" vector-effect="none" points="1009.35,453.633 1009.59,453.374 " />
<polyline fill="none" vector-effect="none" points="1009.59,453.374 1009.83,453.62 " />
<polyline fill="none" vector-effect="none" points="1009.83,453.62 1010.07,453.386 " />
<polyline fill="none" vector-effect="none" points="1010.07,453.386 1010.37,453.554 " />
<polyline fill="none" vector-effect="none" points="1010.37,453.554 1010.55,453.398 " />
<polyline fill="none" vector-effect="none" points="1010.55,453.398 1011.39,453.492 " />
<polyline fill="none" vector-effect="none" points="1011.39,453.492 1012.11,453.499 " />
<polyline fill="none" vector-effect="none" points="1012.11,453.499 1012.83,453.508 " />
<polyline fill="none" vector-effect="none" points="1012.83,453.508 1013.67,453.541 " />
<polyline fill="none" vector-effect="none" points="1013.67,453.541 1022.24,453.497 " />
<polyline fill="none" vector-effect="none" points="1022.24,453.497 1035.54,453.5 " />
<polyline fill="none" vector-effect="none" points="1035.54,453.5 1881.44,453.5 " />
</g>
</g>
</svg>
