<?xml version="1.0" encoding="UTF-8" standalone="no"?>
<svg width="574.322mm" height="292.1mm"
 xmlns="http://www.w3.org/2000/svg" xmlns:xlink="http://www.w3.org/1999/xlink"  version="1.2" baseProfile="tiny">
<title>Qt SVG Document</title>
<desc>Generated with Qt</desc>
<defs>
</defs>
<g fill="none" stroke="black" stroke-width="1" fill-rule="evenodd" stroke-linecap="square" stroke-linejoin="bevel" >

<g fill="none" stroke="#000000" stroke-opacity="1" stroke-width="1" stroke-linecap="square" stroke-linejoin="bevel" transform="matrix(1,0,0,1,0,0)"
font-family="MS Shell Dlg 2" font-size="24" font-weight="400" font-style="normal" 
>
<text fill="#000000" fill-opacity="1" stroke="none" xml:space="preserve" x="2" y="963" font-family="MS Shell Dlg 2" font-size="24" font-weight="400" font-style="normal" 
 >(file cwiczenie-4-rebuilt.pl4; x-var t)  </text>
</g>

<g fill="none" stroke="#0000ff" stroke-opacity="1" stroke-width="1" stroke-linecap="square" stroke-linejoin="bevel" transform="matrix(1,0,0,1,0,0)"
font-family="MS Shell Dlg 2" font-size="24" font-weight="400" font-style="normal" 
>
<text fill="#0000ff" fill-opacity="1" stroke="none" xml:space="preserve" x="397" y="963" font-family="MS Shell Dlg 2" font-size="24" font-weight="400" font-style="normal" 
 >v:XX0006-    </text>
</g>

<g fill="none" stroke="#000000" stroke-opacity="1" stroke-width="5" stroke-linecap="square" stroke-linejoin="bevel" transform="matrix(1,0,0,1,0,0)"
font-family="MS Shell Dlg 2" font-size="24" font-weight="400" font-style="normal" 
>
<rect x="76" y="30" width="1806" height="847"/>
</g>

<g fill="none" stroke="#000000" stroke-opacity="1" stroke-width="1" stroke-linecap="square" stroke-linejoin="bevel" transform="matrix(1,0,0,1,0,0)"
font-family="MS Shell Dlg 2" font-size="24" font-weight="400" font-style="normal" 
>
<text fill="#000000" fill-opacity="1" stroke="none" xml:space="preserve" x="70" y="919" font-family="MS Shell Dlg 2" font-size="24" font-weight="400" font-style="normal" 
 >0</text>
</g>

<g fill="none" stroke="#000000" stroke-opacity="1" stroke-width="1" stroke-linecap="square" stroke-linejoin="bevel" transform="matrix(1,0,0,1,0,0)"
font-family="MS Shell Dlg 2" font-size="24" font-weight="400" font-style="normal" 
>
<text fill="#000000" fill-opacity="1" stroke="none" xml:space="preserve" x="371" y="919" font-family="MS Shell Dlg 2" font-size="24" font-weight="400" font-style="normal" 
 >5</text>
</g>

<g fill="none" stroke="#000000" stroke-opacity="1" stroke-width="1" stroke-linecap="square" stroke-linejoin="bevel" transform="matrix(1,0,0,1,0,0)"
font-family="MS Shell Dlg 2" font-size="24" font-weight="400" font-style="normal" 
>
<text fill="#000000" fill-opacity="1" stroke="none" xml:space="preserve" x="665" y="919" font-family="MS Shell Dlg 2" font-size="24" font-weight="400" font-style="normal" 
 >10</text>
</g>

<g fill="none" stroke="#000000" stroke-opacity="1" stroke-width="1" stroke-linecap="square" stroke-linejoin="bevel" transform="matrix(1,0,0,1,0,0)"
font-family="MS Shell Dlg 2" font-size="24" font-weight="400" font-style="normal" 
>
<text fill="#000000" fill-opacity="1" stroke="none" xml:space="preserve" x="965" y="919" font-family="MS Shell Dlg 2" font-size="24" font-weight="400" font-style="normal" 
 >15</text>
</g>

<g fill="none" stroke="#000000" stroke-opacity="1" stroke-width="1" stroke-linecap="square" stroke-linejoin="bevel" transform="matrix(1,0,0,1,0,0)"
font-family="MS Shell Dlg 2" font-size="24" font-weight="400" font-style="normal" 
>
<text fill="#000000" fill-opacity="1" stroke="none" xml:space="preserve" x="1266" y="919" font-family="MS Shell Dlg 2" font-size="24" font-weight="400" font-style="normal" 
 >20</text>
</g>

<g fill="none" stroke="#000000" stroke-opacity="1" stroke-width="1" stroke-linecap="square" stroke-linejoin="bevel" transform="matrix(1,0,0,1,0,0)"
font-family="MS Shell Dlg 2" font-size="24" font-weight="400" font-style="normal" 
>
<text fill="#000000" fill-opacity="1" stroke="none" xml:space="preserve" x="1567" y="919" font-family="MS Shell Dlg 2" font-size="24" font-weight="400" font-style="normal" 
 >25</text>
</g>

<g fill="none" stroke="#000000" stroke-opacity="1" stroke-width="1" stroke-linecap="square" stroke-linejoin="bevel" transform="matrix(1,0,0,1,0,0)"
font-family="MS Shell Dlg 2" font-size="24" font-weight="400" font-style="normal" 
>
<text fill="#000000" fill-opacity="1" stroke="none" xml:space="preserve" x="1868" y="919" font-family="MS Shell Dlg 2" font-size="24" font-weight="400" font-style="normal" 
 >30</text>
</g>

<g fill="none" stroke="#000000" stroke-opacity="1" stroke-width="1" stroke-linecap="square" stroke-linejoin="bevel" transform="matrix(1,0,0,1,0,0)"
font-family="MS Shell Dlg 2" font-size="24" font-weight="400" font-style="normal" 
>
<text fill="#000000" fill-opacity="1" stroke="none" xml:space="preserve" x="1706" y="919" font-family="MS Shell Dlg 2" font-size="24" font-weight="400" font-style="normal" 
 >(</text>
</g>

<g fill="none" stroke="#000000" stroke-opacity="1" stroke-width="1" stroke-linecap="square" stroke-linejoin="bevel" transform="matrix(1,0,0,1,0,0)"
font-family="MS Shell Dlg 2" font-size="24" font-weight="400" font-style="normal" 
>
<text fill="#000000" fill-opacity="1" stroke="none" xml:space="preserve" x="1715" y="919" font-family="MS Shell Dlg 2" font-size="24" font-weight="400" font-style="normal" 
 >m</text>
</g>

<g fill="none" stroke="#000000" stroke-opacity="1" stroke-width="1" stroke-linecap="square" stroke-linejoin="bevel" transform="matrix(1,0,0,1,0,0)"
font-family="MS Shell Dlg 2" font-size="24" font-weight="400" font-style="normal" 
>
<text fill="#000000" fill-opacity="1" stroke="none" xml:space="preserve" x="1735" y="919" font-family="MS Shell Dlg 2" font-size="24" font-weight="400" font-style="normal" 
 >s</text>
</g>

<g fill="none" stroke="#000000" stroke-opacity="1" stroke-width="1" stroke-linecap="square" stroke-linejoin="bevel" transform="matrix(1,0,0,1,0,0)"
font-family="MS Shell Dlg 2" font-size="24" font-weight="400" font-style="normal" 
>
<text fill="#000000" fill-opacity="1" stroke="none" xml:space="preserve" x="1746" y="919" font-family="MS Shell Dlg 2" font-size="24" font-weight="400" font-style="normal" 
 >)</text>
</g>

<g fill="none" stroke="#000000" stroke-opacity="1" stroke-width="5" stroke-linecap="square" stroke-linejoin="bevel" transform="matrix(1,0,0,1,0,0)"
font-family="MS Shell Dlg 2" font-size="24" font-weight="400" font-style="normal" 
>
<path vector-effect="none" fill-rule="evenodd" d="M76,877 L76,891 M377,877 L377,891 M678,877 L678,891 M978,877 L978,891 M1279,877 L1279,891 M1580,877 L1580,891 M1881,877 L1881,891"/>
</g>

<g fill="none" stroke="#000000" stroke-opacity="1" stroke-dasharray="1,2" stroke-dashoffset="0" stroke-width="1" stroke-linecap="square" stroke-linejoin="bevel" transform="matrix(1,0,0,1,0,0)"
font-family="MS Shell Dlg 2" font-size="24" font-weight="400" font-style="normal" 
>
<path vector-effect="none" fill-rule="evenodd" d=""/>
</g>

<g fill="none" stroke="#000000" stroke-opacity="1" stroke-dasharray="1,2" stroke-dashoffset="0" stroke-width="1" stroke-linecap="square" stroke-linejoin="bevel" transform="matrix(1,0,0,1,0,0)"
font-family="MS Shell Dlg 2" font-size="24" font-weight="400" font-style="normal" 
>
<text fill="#000000" fill-opacity="1" stroke="none" xml:space="preserve" x="5" y="886" font-family="MS Shell Dlg 2" font-size="24" font-weight="400" font-style="normal" 
 >-200</text>
</g>

<g fill="none" stroke="#000000" stroke-opacity="1" stroke-dasharray="1,2" stroke-dashoffset="0" stroke-width="1" stroke-linecap="square" stroke-linejoin="bevel" transform="matrix(1,0,0,1,0,0)"
font-family="MS Shell Dlg 2" font-size="24" font-weight="400" font-style="normal" 
>
<text fill="#000000" fill-opacity="1" stroke="none" xml:space="preserve" x="5" y="780" font-family="MS Shell Dlg 2" font-size="24" font-weight="400" font-style="normal" 
 >-150</text>
</g>

<g fill="none" stroke="#000000" stroke-opacity="1" stroke-dasharray="1,2" stroke-dashoffset="0" stroke-width="1" stroke-linecap="square" stroke-linejoin="bevel" transform="matrix(1,0,0,1,0,0)"
font-family="MS Shell Dlg 2" font-size="24" font-weight="400" font-style="normal" 
>
<text fill="#000000" fill-opacity="1" stroke="none" xml:space="preserve" x="5" y="675" font-family="MS Shell Dlg 2" font-size="24" font-weight="400" font-style="normal" 
 >-100</text>
</g>

<g fill="none" stroke="#000000" stroke-opacity="1" stroke-dasharray="1,2" stroke-dashoffset="0" stroke-width="1" stroke-linecap="square" stroke-linejoin="bevel" transform="matrix(1,0,0,1,0,0)"
font-family="MS Shell Dlg 2" font-size="24" font-weight="400" font-style="normal" 
>
<text fill="#000000" fill-opacity="1" stroke="none" xml:space="preserve" x="18" y="569" font-family="MS Shell Dlg 2" font-size="24" font-weight="400" font-style="normal" 
 >-50</text>
</g>

<g fill="none" stroke="#000000" stroke-opacity="1" stroke-dasharray="1,2" stroke-dashoffset="0" stroke-width="1" stroke-linecap="square" stroke-linejoin="bevel" transform="matrix(1,0,0,1,0,0)"
font-family="MS Shell Dlg 2" font-size="24" font-weight="400" font-style="normal" 
>
<text fill="#000000" fill-opacity="1" stroke="none" xml:space="preserve" x="40" y="463" font-family="MS Shell Dlg 2" font-size="24" font-weight="400" font-style="normal" 
 >0</text>
</g>

<g fill="none" stroke="#000000" stroke-opacity="1" stroke-dasharray="1,2" stroke-dashoffset="0" stroke-width="1" stroke-linecap="square" stroke-linejoin="bevel" transform="matrix(1,0,0,1,0,0)"
font-family="MS Shell Dlg 2" font-size="24" font-weight="400" font-style="normal" 
>
<text fill="#000000" fill-opacity="1" stroke="none" xml:space="preserve" x="27" y="357" font-family="MS Shell Dlg 2" font-size="24" font-weight="400" font-style="normal" 
 >50</text>
</g>

<g fill="none" stroke="#000000" stroke-opacity="1" stroke-dasharray="1,2" stroke-dashoffset="0" stroke-width="1" stroke-linecap="square" stroke-linejoin="bevel" transform="matrix(1,0,0,1,0,0)"
font-family="MS Shell Dlg 2" font-size="24" font-weight="400" font-style="normal" 
>
<text fill="#000000" fill-opacity="1" stroke="none" xml:space="preserve" x="14" y="252" font-family="MS Shell Dlg 2" font-size="24" font-weight="400" font-style="normal" 
 >100</text>
</g>

<g fill="none" stroke="#000000" stroke-opacity="1" stroke-dasharray="1,2" stroke-dashoffset="0" stroke-width="1" stroke-linecap="square" stroke-linejoin="bevel" transform="matrix(1,0,0,1,0,0)"
font-family="MS Shell Dlg 2" font-size="24" font-weight="400" font-style="normal" 
>
<text fill="#000000" fill-opacity="1" stroke="none" xml:space="preserve" x="14" y="146" font-family="MS Shell Dlg 2" font-size="24" font-weight="400" font-style="normal" 
 >150</text>
</g>

<g fill="none" stroke="#000000" stroke-opacity="1" stroke-dasharray="1,2" stroke-dashoffset="0" stroke-width="1" stroke-linecap="square" stroke-linejoin="bevel" transform="matrix(1,0,0,1,0,0)"
font-family="MS Shell Dlg 2" font-size="24" font-weight="400" font-style="normal" 
>
<text fill="#000000" fill-opacity="1" stroke="none" xml:space="preserve" x="14" y="40" font-family="MS Shell Dlg 2" font-size="24" font-weight="400" font-style="normal" 
 >200</text>
</g>

<g fill="none" stroke="#000000" stroke-opacity="1" stroke-dasharray="1,2" stroke-dashoffset="0" stroke-width="1" stroke-linecap="square" stroke-linejoin="bevel" transform="matrix(1,0,0,1,0,0)"
font-family="MS Shell Dlg 2" font-size="24" font-weight="400" font-style="normal" 
>
<text fill="#000000" fill-opacity="1" stroke="none" xml:space="preserve" x="16" y="95" font-family="MS Shell Dlg 2" font-size="24" font-weight="400" font-style="normal" 
 >(</text>
</g>

<g fill="none" stroke="#000000" stroke-opacity="1" stroke-dasharray="1,2" stroke-dashoffset="0" stroke-width="1" stroke-linecap="square" stroke-linejoin="bevel" transform="matrix(1,0,0,1,0,0)"
font-family="MS Shell Dlg 2" font-size="24" font-weight="400" font-style="normal" 
>
<text fill="#000000" fill-opacity="1" stroke="none" xml:space="preserve" x="25" y="95" font-family="MS Shell Dlg 2" font-size="24" font-weight="400" font-style="normal" 
 >k</text>
</g>

<g fill="none" stroke="#000000" stroke-opacity="1" stroke-dasharray="1,2" stroke-dashoffset="0" stroke-width="1" stroke-linecap="square" stroke-linejoin="bevel" transform="matrix(1,0,0,1,0,0)"
font-family="MS Shell Dlg 2" font-size="24" font-weight="400" font-style="normal" 
>
<text fill="#000000" fill-opacity="1" stroke="none" xml:space="preserve" x="37" y="95" font-family="MS Shell Dlg 2" font-size="24" font-weight="400" font-style="normal" 
 >V</text>
</g>

<g fill="none" stroke="#000000" stroke-opacity="1" stroke-dasharray="1,2" stroke-dashoffset="0" stroke-width="1" stroke-linecap="square" stroke-linejoin="bevel" transform="matrix(1,0,0,1,0,0)"
font-family="MS Shell Dlg 2" font-size="24" font-weight="400" font-style="normal" 
>
<text fill="#000000" fill-opacity="1" stroke="none" xml:space="preserve" x="51" y="95" font-family="MS Shell Dlg 2" font-size="24" font-weight="400" font-style="normal" 
 >)</text>
</g>

<g fill="none" stroke="#000000" stroke-opacity="1" stroke-width="5" stroke-linecap="square" stroke-linejoin="bevel" transform="matrix(1,0,0,1,0,0)"
font-family="MS Shell Dlg 2" font-size="24" font-weight="400" font-style="normal" 
>
<path vector-effect="none" fill-rule="evenodd" d="M75,876 L61,876 M75,770 L61,770 M75,665 L61,665 M75,559 L61,559 M75,453 L61,453 M75,347 L61,347 M75,242 L61,242 M75,136 L61,136 M75,30 L61,30"/>
</g>

<g fill="none" stroke="#000000" stroke-opacity="1" stroke-dasharray="1,2" stroke-dashoffset="0" stroke-width="1" stroke-linecap="square" stroke-linejoin="bevel" transform="matrix(1,0,0,1,0,0)"
font-family="MS Shell Dlg 2" font-size="24" font-weight="400" font-style="normal" 
>
<path vector-effect="none" fill-rule="evenodd" d=""/>
</g>

<g fill="none" stroke="#0000ff" stroke-opacity="1" stroke-width="5" stroke-linecap="square" stroke-linejoin="bevel" transform="matrix(1,0,0,1,0,0)"
font-family="MS Shell Dlg 2" font-size="24" font-weight="400" font-style="normal" 
>
<polyline fill="none" vector-effect="none" points="76,453 77.5228,453.322 " />
<polyline fill="none" vector-effect="none" points="77.5228,453.322 979.06,453.422 " />
<polyline fill="none" vector-effect="none" points="979.06,453.422 979.241,68.9861 " />
<polyline fill="none" vector-effect="none" points="979.241,68.9861 979.481,817.739 " />
<polyline fill="none" vector-effect="none" points="979.481,817.739 979.722,109.125 " />
<polyline fill="none" vector-effect="none" points="979.722,109.125 979.963,778.491 " />
<polyline fill="none" vector-effect="none" points="979.963,778.491 980.203,147.359 " />
<polyline fill="none" vector-effect="none" points="980.203,147.359 980.444,741.37 " />
<polyline fill="none" vector-effect="none" points="980.444,741.37 980.685,183.286 " />
<polyline fill="none" vector-effect="none" points="980.685,183.286 980.925,706.701 " />
<polyline fill="none" vector-effect="none" points="980.925,706.701 981.166,216.65 " />
<polyline fill="none" vector-effect="none" points="981.166,216.65 981.407,674.675 " />
<polyline fill="none" vector-effect="none" points="981.407,674.675 981.647,247.317 " />
<polyline fill="none" vector-effect="none" points="981.647,247.317 981.888,645.378 " />
<polyline fill="none" vector-effect="none" points="981.888,645.378 982.129,275.244 " />
<polyline fill="none" vector-effect="none" points="982.129,275.244 982.369,618.812 " />
<polyline fill="none" vector-effect="none" points="982.369,618.812 982.61,300.462 " />
<polyline fill="none" vector-effect="none" points="982.61,300.462 982.791,529.756 " />
<polyline fill="none" vector-effect="none" points="982.791,529.756 982.851,594.92 " />
<polyline fill="none" vector-effect="none" points="982.851,594.92 982.971,492.322 " />
<polyline fill="none" vector-effect="none" points="982.971,492.322 983.091,323.055 " />
<polyline fill="none" vector-effect="none" points="983.091,323.055 983.212,412.046 " />
<polyline fill="none" vector-effect="none" points="983.212,412.046 983.332,573.596 " />
<polyline fill="none" vector-effect="none" points="983.332,573.596 983.392,567.09 " />
<polyline fill="none" vector-effect="none" points="983.392,567.09 983.573,343.146 " />
<polyline fill="none" vector-effect="none" points="983.573,343.146 983.633,345.531 " />
<polyline fill="none" vector-effect="none" points="983.633,345.531 983.873,555.919 " />
<polyline fill="none" vector-effect="none" points="983.873,555.919 984.114,356.534 " />
<polyline fill="none" vector-effect="none" points="984.114,356.534 984.355,545.129 " />
<polyline fill="none" vector-effect="none" points="984.355,545.129 984.596,367.073 " />
<polyline fill="none" vector-effect="none" points="984.596,367.073 984.836,534.873 " />
<polyline fill="none" vector-effect="none" points="984.836,534.873 985.077,377.022 " />
<polyline fill="none" vector-effect="none" points="985.077,377.022 985.318,525.252 " />
<polyline fill="none" vector-effect="none" points="985.318,525.252 985.558,386.298 " />
<polyline fill="none" vector-effect="none" points="985.558,386.298 985.799,516.332 " />
<polyline fill="none" vector-effect="none" points="985.799,516.332 986.039,394.855 " />
<polyline fill="none" vector-effect="none" points="986.039,394.855 986.28,508.143 " />
<polyline fill="none" vector-effect="none" points="986.28,508.143 986.521,402.673 " />
<polyline fill="none" vector-effect="none" points="986.521,402.673 986.762,500.696 " />
<polyline fill="none" vector-effect="none" points="986.762,500.696 987.002,409.753 " />
<polyline fill="none" vector-effect="none" points="987.002,409.753 987.243,493.978 " />
<polyline fill="none" vector-effect="none" points="987.243,493.978 987.423,433.675 " />
<polyline fill="none" vector-effect="none" points="987.423,433.675 987.484,416.114 " />
<polyline fill="none" vector-effect="none" points="987.484,416.114 987.604,442.784 " />
<polyline fill="none" vector-effect="none" points="987.604,442.784 987.724,487.967 " />
<polyline fill="none" vector-effect="none" points="987.724,487.967 987.844,464.881 " />
<polyline fill="none" vector-effect="none" points="987.844,464.881 987.965,421.785 " />
<polyline fill="none" vector-effect="none" points="987.965,421.785 988.025,423.215 " />
<polyline fill="none" vector-effect="none" points="988.025,423.215 988.206,482.626 " />
<polyline fill="none" vector-effect="none" points="988.206,482.626 988.266,482.27 " />
<polyline fill="none" vector-effect="none" points="988.266,482.27 988.506,426.224 " />
<polyline fill="none" vector-effect="none" points="988.506,426.224 988.747,479.31 " />
<polyline fill="none" vector-effect="none" points="988.747,479.31 988.988,429.123 " />
<polyline fill="none" vector-effect="none" points="988.988,429.123 989.228,476.481 " />
<polyline fill="none" vector-effect="none" points="989.228,476.481 989.469,431.874 " />
<polyline fill="none" vector-effect="none" points="989.469,431.874 989.71,473.815 " />
<polyline fill="none" vector-effect="none" points="989.71,473.815 989.95,434.45 " />
<polyline fill="none" vector-effect="none" points="989.95,434.45 990.191,471.333 " />
<polyline fill="none" vector-effect="none" points="990.191,471.333 990.432,436.834 " />
<polyline fill="none" vector-effect="none" points="990.432,436.834 990.672,469.048 " />
<polyline fill="none" vector-effect="none" points="990.672,469.048 990.913,439.02 " />
<polyline fill="none" vector-effect="none" points="990.913,439.02 991.154,466.962 " />
<polyline fill="none" vector-effect="none" points="991.154,466.962 991.394,441.006 " />
<polyline fill="none" vector-effect="none" points="991.394,441.006 991.635,465.075 " />
<polyline fill="none" vector-effect="none" points="991.635,465.075 991.876,442.795 " />
<polyline fill="none" vector-effect="none" points="991.876,442.795 991.996,450.76 " />
<polyline fill="none" vector-effect="none" points="991.996,450.76 992.116,463.382 " />
<polyline fill="none" vector-effect="none" points="992.116,463.382 992.237,456.453 " />
<polyline fill="none" vector-effect="none" points="992.237,456.453 992.357,444.394 " />
<polyline fill="none" vector-effect="none" points="992.357,444.394 992.477,450.379 " />
<polyline fill="none" vector-effect="none" points="992.477,450.379 992.598,461.874 " />
<polyline fill="none" vector-effect="none" points="992.598,461.874 992.658,461.573 " />
<polyline fill="none" vector-effect="none" points="992.658,461.573 992.838,445.814 " />
<polyline fill="none" vector-effect="none" points="992.838,445.814 992.899,445.835 " />
<polyline fill="none" vector-effect="none" points="992.899,445.835 993.139,460.763 " />
<polyline fill="none" vector-effect="none" points="993.139,460.763 993.38,446.631 " />
<polyline fill="none" vector-effect="none" points="993.38,446.631 993.621,459.984 " />
<polyline fill="none" vector-effect="none" points="993.621,459.984 993.861,447.39 " />
<polyline fill="none" vector-effect="none" points="993.861,447.39 994.102,459.247 " />
<polyline fill="none" vector-effect="none" points="994.102,459.247 994.343,448.104 " />
<polyline fill="none" vector-effect="none" points="994.343,448.104 994.583,458.557 " />
<polyline fill="none" vector-effect="none" points="994.583,458.557 994.824,448.768 " />
<polyline fill="none" vector-effect="none" points="994.824,448.768 995.065,457.92 " />
<polyline fill="none" vector-effect="none" points="995.065,457.92 995.305,449.379 " />
<polyline fill="none" vector-effect="none" points="995.305,449.379 995.546,457.336 " />
<polyline fill="none" vector-effect="none" points="995.546,457.336 995.786,449.935 " />
<polyline fill="none" vector-effect="none" points="995.786,449.935 996.027,456.807 " />
<polyline fill="none" vector-effect="none" points="996.027,456.807 996.268,450.438 " />
<polyline fill="none" vector-effect="none" points="996.268,450.438 996.448,455.04 " />
<polyline fill="none" vector-effect="none" points="996.448,455.04 996.508,456.331 " />
<polyline fill="none" vector-effect="none" points="996.508,456.331 996.629,454.259 " />
<polyline fill="none" vector-effect="none" points="996.629,454.259 996.749,450.888 " />
<polyline fill="none" vector-effect="none" points="996.749,450.888 996.87,452.687 " />
<polyline fill="none" vector-effect="none" points="996.87,452.687 996.99,455.905 " />
<polyline fill="none" vector-effect="none" points="996.99,455.905 997.11,454.355 " />
<polyline fill="none" vector-effect="none" points="997.11,454.355 997.231,451.289 " />
<polyline fill="none" vector-effect="none" points="997.231,451.289 997.291,451.348 " />
<polyline fill="none" vector-effect="none" points="997.291,451.348 997.531,455.542 " />
<polyline fill="none" vector-effect="none" points="997.531,455.542 997.772,451.566 " />
<polyline fill="none" vector-effect="none" points="997.772,451.566 998.013,455.328 " />
<polyline fill="none" vector-effect="none" points="998.013,455.328 998.253,451.776 " />
<polyline fill="none" vector-effect="none" points="998.253,451.776 998.494,455.124 " />
<polyline fill="none" vector-effect="none" points="998.494,455.124 998.735,451.973 " />
<polyline fill="none" vector-effect="none" points="998.735,451.973 998.975,454.933 " />
<polyline fill="none" vector-effect="none" points="998.975,454.933 999.216,452.158 " />
<polyline fill="none" vector-effect="none" points="999.216,452.158 999.457,454.755 " />
<polyline fill="none" vector-effect="none" points="999.457,454.755 999.697,452.328 " />
<polyline fill="none" vector-effect="none" points="999.697,452.328 999.938,454.592 " />
<polyline fill="none" vector-effect="none" points="999.938,454.592 1000.18,452.484 " />
<polyline fill="none" vector-effect="none" points="1000.18,452.484 1000.42,454.444 " />
<polyline fill="none" vector-effect="none" points="1000.42,454.444 1000.66,452.625 " />
<polyline fill="none" vector-effect="none" points="1000.66,452.625 1000.9,454.31 " />
<polyline fill="none" vector-effect="none" points="1000.9,454.31 1001.08,453.1 " />
<polyline fill="none" vector-effect="none" points="1001.08,453.1 1001.14,452.752 " />
<polyline fill="none" vector-effect="none" points="1001.14,452.752 1001.32,453.847 " />
<polyline fill="none" vector-effect="none" points="1001.32,453.847 1001.38,454.19 " />
<polyline fill="none" vector-effect="none" points="1001.38,454.19 1001.5,453.723 " />
<polyline fill="none" vector-effect="none" points="1001.5,453.723 1001.62,452.865 " />
<polyline fill="none" vector-effect="none" points="1001.62,452.865 1001.74,453.266 " />
<polyline fill="none" vector-effect="none" points="1001.74,453.266 1001.86,454.084 " />
<polyline fill="none" vector-effect="none" points="1001.86,454.084 1001.98,453.742 " />
<polyline fill="none" vector-effect="none" points="1001.98,453.742 1002.16,452.956 " />
<polyline fill="none" vector-effect="none" points="1002.16,452.956 1002.4,454.015 " />
<polyline fill="none" vector-effect="none" points="1002.4,454.015 1002.65,453.014 " />
<polyline fill="none" vector-effect="none" points="1002.65,453.014 1002.89,453.959 " />
<polyline fill="none" vector-effect="none" points="1002.89,453.959 1003.13,453.068 " />
<polyline fill="none" vector-effect="none" points="1003.13,453.068 1003.37,453.906 " />
<polyline fill="none" vector-effect="none" points="1003.37,453.906 1003.61,453.12 " />
<polyline fill="none" vector-effect="none" points="1003.61,453.12 1003.85,453.856 " />
<polyline fill="none" vector-effect="none" points="1003.85,453.856 1004.09,453.167 " />
<polyline fill="none" vector-effect="none" points="1004.09,453.167 1004.33,453.811 " />
<polyline fill="none" vector-effect="none" points="1004.33,453.811 1004.57,453.211 " />
<polyline fill="none" vector-effect="none" points="1004.57,453.211 1004.81,453.769 " />
<polyline fill="none" vector-effect="none" points="1004.81,453.769 1005.11,453.298 " />
<polyline fill="none" vector-effect="none" points="1005.11,453.298 1005.29,453.732 " />
<polyline fill="none" vector-effect="none" points="1005.29,453.732 1005.59,453.315 " />
<polyline fill="none" vector-effect="none" points="1005.59,453.315 1005.83,453.677 " />
<polyline fill="none" vector-effect="none" points="1005.83,453.677 1006.08,453.331 " />
<polyline fill="none" vector-effect="none" points="1006.08,453.331 1006.32,453.661 " />
<polyline fill="none" vector-effect="none" points="1006.32,453.661 1006.56,453.347 " />
<polyline fill="none" vector-effect="none" points="1006.56,453.347 1006.8,453.645 " />
<polyline fill="none" vector-effect="none" points="1006.8,453.645 1007.04,453.363 " />
<polyline fill="none" vector-effect="none" points="1007.04,453.363 1007.28,453.629 " />
<polyline fill="none" vector-effect="none" points="1007.28,453.629 1007.58,453.432 " />
<polyline fill="none" vector-effect="none" points="1007.58,453.432 1007.76,453.615 " />
<polyline fill="none" vector-effect="none" points="1007.76,453.615 1008.06,453.434 " />
<polyline fill="none" vector-effect="none" points="1008.06,453.434 1008.3,453.565 " />
<polyline fill="none" vector-effect="none" points="1008.3,453.565 1008.54,453.437 " />
<polyline fill="none" vector-effect="none" points="1008.54,453.437 1008.78,453.562 " />
<polyline fill="none" vector-effect="none" points="1008.78,453.562 1009.5,453.444 " />
<polyline fill="none" vector-effect="none" points="1009.5,453.444 1010.35,453.473 " />
<polyline fill="none" vector-effect="none" points="1010.35,453.473 1011.49,453.482 " />
<polyline fill="none" vector-effect="none" points="1011.49,453.482 1012.63,453.529 " />
<polyline fill="none" vector-effect="none" points="1012.63,453.529 1015.52,453.512 " />
<polyline fill="none" vector-effect="none" points="1015.52,453.512 1127.61,453.5 " />
<polyline fill="none" vector-effect="none" points="1127.61,453.5 1881.44,453.5 " />
<polyline fill="none" vector-effect="none" points="1881.44,453.5 1881.5,453.5 " />
</g>
</g>
</svg>
