<?xml version="1.0" encoding="UTF-8" standalone="no"?>
<svg width="574.322mm" height="292.1mm"
 xmlns="http://www.w3.org/2000/svg" xmlns:xlink="http://www.w3.org/1999/xlink"  version="1.2" baseProfile="tiny">
<title>Qt SVG Document</title>
<desc>Generated with Qt</desc>
<defs>
</defs>
<g fill="none" stroke="black" stroke-width="1" fill-rule="evenodd" stroke-linecap="square" stroke-linejoin="bevel" >

<g fill="none" stroke="#000000" stroke-opacity="1" stroke-width="1" stroke-linecap="square" stroke-linejoin="bevel" transform="matrix(1,0,0,1,0,0)"
font-family="MS Shell Dlg 2" font-size="24" font-weight="400" font-style="normal" 
>
<text fill="#000000" fill-opacity="1" stroke="none" xml:space="preserve" x="2" y="963" font-family="MS Shell Dlg 2" font-size="24" font-weight="400" font-style="normal" 
 >(file cw3.pl4; x-var t)  </text>
</g>

<g fill="none" stroke="#0000ff" stroke-opacity="1" stroke-width="1" stroke-linecap="square" stroke-linejoin="bevel" transform="matrix(1,0,0,1,0,0)"
font-family="MS Shell Dlg 2" font-size="24" font-weight="400" font-style="normal" 
>
<text fill="#0000ff" fill-opacity="1" stroke="none" xml:space="preserve" x="242" y="963" font-family="MS Shell Dlg 2" font-size="24" font-weight="400" font-style="normal" 
 >c:XX0002-XX0001    </text>
</g>

<g fill="none" stroke="#c0c0c0" stroke-opacity="1" stroke-width="5" stroke-linecap="square" stroke-linejoin="bevel" transform="matrix(1,0,0,1,0,0)"
font-family="MS Shell Dlg 2" font-size="24" font-weight="400" font-style="normal" 
>
<rect x="61" y="30" width="1821" height="847"/>
</g>

<g fill="none" stroke="#000000" stroke-opacity="1" stroke-width="1" stroke-linecap="square" stroke-linejoin="bevel" transform="matrix(1,0,0,1,0,0)"
font-family="MS Shell Dlg 2" font-size="24" font-weight="400" font-style="normal" 
>
<text fill="#000000" fill-opacity="1" stroke="none" xml:space="preserve" x="55" y="919" font-family="MS Shell Dlg 2" font-size="24" font-weight="400" font-style="normal" 
 >0</text>
</g>

<g fill="none" stroke="#000000" stroke-opacity="1" stroke-width="1" stroke-linecap="square" stroke-linejoin="bevel" transform="matrix(1,0,0,1,0,0)"
font-family="MS Shell Dlg 2" font-size="24" font-weight="400" font-style="normal" 
>
<text fill="#000000" fill-opacity="1" stroke="none" xml:space="preserve" x="348" y="919" font-family="MS Shell Dlg 2" font-size="24" font-weight="400" font-style="normal" 
 >0.5</text>
</g>

<g fill="none" stroke="#000000" stroke-opacity="1" stroke-width="1" stroke-linecap="square" stroke-linejoin="bevel" transform="matrix(1,0,0,1,0,0)"
font-family="MS Shell Dlg 2" font-size="24" font-weight="400" font-style="normal" 
>
<text fill="#000000" fill-opacity="1" stroke="none" xml:space="preserve" x="662" y="919" font-family="MS Shell Dlg 2" font-size="24" font-weight="400" font-style="normal" 
 >1</text>
</g>

<g fill="none" stroke="#000000" stroke-opacity="1" stroke-width="1" stroke-linecap="square" stroke-linejoin="bevel" transform="matrix(1,0,0,1,0,0)"
font-family="MS Shell Dlg 2" font-size="24" font-weight="400" font-style="normal" 
>
<text fill="#000000" fill-opacity="1" stroke="none" xml:space="preserve" x="955" y="919" font-family="MS Shell Dlg 2" font-size="24" font-weight="400" font-style="normal" 
 >1.5</text>
</g>

<g fill="none" stroke="#000000" stroke-opacity="1" stroke-width="1" stroke-linecap="square" stroke-linejoin="bevel" transform="matrix(1,0,0,1,0,0)"
font-family="MS Shell Dlg 2" font-size="24" font-weight="400" font-style="normal" 
>
<text fill="#000000" fill-opacity="1" stroke="none" xml:space="preserve" x="1268" y="919" font-family="MS Shell Dlg 2" font-size="24" font-weight="400" font-style="normal" 
 >2</text>
</g>

<g fill="none" stroke="#000000" stroke-opacity="1" stroke-width="1" stroke-linecap="square" stroke-linejoin="bevel" transform="matrix(1,0,0,1,0,0)"
font-family="MS Shell Dlg 2" font-size="24" font-weight="400" font-style="normal" 
>
<text fill="#000000" fill-opacity="1" stroke="none" xml:space="preserve" x="1562" y="919" font-family="MS Shell Dlg 2" font-size="24" font-weight="400" font-style="normal" 
 >2.5</text>
</g>

<g fill="none" stroke="#000000" stroke-opacity="1" stroke-width="1" stroke-linecap="square" stroke-linejoin="bevel" transform="matrix(1,0,0,1,0,0)"
font-family="MS Shell Dlg 2" font-size="24" font-weight="400" font-style="normal" 
>
<text fill="#000000" fill-opacity="1" stroke="none" xml:space="preserve" x="1875" y="919" font-family="MS Shell Dlg 2" font-size="24" font-weight="400" font-style="normal" 
 >3</text>
</g>

<g fill="none" stroke="#000000" stroke-opacity="1" stroke-width="1" stroke-linecap="square" stroke-linejoin="bevel" transform="matrix(1,0,0,1,0,0)"
font-family="MS Shell Dlg 2" font-size="24" font-weight="400" font-style="normal" 
>
<text fill="#000000" fill-opacity="1" stroke="none" xml:space="preserve" x="1715" y="919" font-family="MS Shell Dlg 2" font-size="24" font-weight="400" font-style="normal" 
 >(</text>
</g>

<g fill="none" stroke="#000000" stroke-opacity="1" stroke-width="1" stroke-linecap="square" stroke-linejoin="bevel" transform="matrix(1,0,0,1,0,0)"
font-family="MS Shell Dlg 2" font-size="24" font-weight="400" font-style="normal" 
>
<text fill="#000000" fill-opacity="1" stroke="none" xml:space="preserve" x="1724" y="919" font-family="MS Shell Dlg 2" font-size="24" font-weight="400" font-style="normal" 
 >s</text>
</g>

<g fill="none" stroke="#000000" stroke-opacity="1" stroke-width="1" stroke-linecap="square" stroke-linejoin="bevel" transform="matrix(1,0,0,1,0,0)"
font-family="MS Shell Dlg 2" font-size="24" font-weight="400" font-style="normal" 
>
<text fill="#000000" fill-opacity="1" stroke="none" xml:space="preserve" x="1735" y="919" font-family="MS Shell Dlg 2" font-size="24" font-weight="400" font-style="normal" 
 >)</text>
</g>

<g fill="none" stroke="#000000" stroke-opacity="1" stroke-width="5" stroke-linecap="square" stroke-linejoin="bevel" transform="matrix(1,0,0,1,0,0)"
font-family="MS Shell Dlg 2" font-size="24" font-weight="400" font-style="normal" 
>
<path vector-effect="none" fill-rule="evenodd" d="M61,877 L61,891 M364,877 L364,891 M668,877 L668,891 M971,877 L971,891 M1274,877 L1274,891 M1578,877 L1578,891 M1881,877 L1881,891"/>
</g>

<g fill="none" stroke="#000000" stroke-opacity="1" stroke-dasharray="1,2" stroke-dashoffset="0" stroke-width="1" stroke-linecap="square" stroke-linejoin="bevel" transform="matrix(1,0,0,1,0,0)"
font-family="MS Shell Dlg 2" font-size="24" font-weight="400" font-style="normal" 
>
<path vector-effect="none" fill-rule="evenodd" d=""/>
</g>

<g fill="none" stroke="#000000" stroke-opacity="1" stroke-dasharray="1,2" stroke-dashoffset="0" stroke-width="1" stroke-linecap="square" stroke-linejoin="bevel" transform="matrix(1,0,0,1,0,0)"
font-family="MS Shell Dlg 2" font-size="24" font-weight="400" font-style="normal" 
>
<text fill="#000000" fill-opacity="1" stroke="none" xml:space="preserve" x="25" y="886" font-family="MS Shell Dlg 2" font-size="24" font-weight="400" font-style="normal" 
 >0</text>
</g>

<g fill="none" stroke="#000000" stroke-opacity="1" stroke-dasharray="1,2" stroke-dashoffset="0" stroke-width="1" stroke-linecap="square" stroke-linejoin="bevel" transform="matrix(1,0,0,1,0,0)"
font-family="MS Shell Dlg 2" font-size="24" font-weight="400" font-style="normal" 
>
<text fill="#000000" fill-opacity="1" stroke="none" xml:space="preserve" x="25" y="717" font-family="MS Shell Dlg 2" font-size="24" font-weight="400" font-style="normal" 
 >2</text>
</g>

<g fill="none" stroke="#000000" stroke-opacity="1" stroke-dasharray="1,2" stroke-dashoffset="0" stroke-width="1" stroke-linecap="square" stroke-linejoin="bevel" transform="matrix(1,0,0,1,0,0)"
font-family="MS Shell Dlg 2" font-size="24" font-weight="400" font-style="normal" 
>
<text fill="#000000" fill-opacity="1" stroke="none" xml:space="preserve" x="25" y="548" font-family="MS Shell Dlg 2" font-size="24" font-weight="400" font-style="normal" 
 >4</text>
</g>

<g fill="none" stroke="#000000" stroke-opacity="1" stroke-dasharray="1,2" stroke-dashoffset="0" stroke-width="1" stroke-linecap="square" stroke-linejoin="bevel" transform="matrix(1,0,0,1,0,0)"
font-family="MS Shell Dlg 2" font-size="24" font-weight="400" font-style="normal" 
>
<text fill="#000000" fill-opacity="1" stroke="none" xml:space="preserve" x="25" y="378" font-family="MS Shell Dlg 2" font-size="24" font-weight="400" font-style="normal" 
 >6</text>
</g>

<g fill="none" stroke="#000000" stroke-opacity="1" stroke-dasharray="1,2" stroke-dashoffset="0" stroke-width="1" stroke-linecap="square" stroke-linejoin="bevel" transform="matrix(1,0,0,1,0,0)"
font-family="MS Shell Dlg 2" font-size="24" font-weight="400" font-style="normal" 
>
<text fill="#000000" fill-opacity="1" stroke="none" xml:space="preserve" x="25" y="209" font-family="MS Shell Dlg 2" font-size="24" font-weight="400" font-style="normal" 
 >8</text>
</g>

<g fill="none" stroke="#000000" stroke-opacity="1" stroke-dasharray="1,2" stroke-dashoffset="0" stroke-width="1" stroke-linecap="square" stroke-linejoin="bevel" transform="matrix(1,0,0,1,0,0)"
font-family="MS Shell Dlg 2" font-size="24" font-weight="400" font-style="normal" 
>
<text fill="#000000" fill-opacity="1" stroke="none" xml:space="preserve" x="12" y="40" font-family="MS Shell Dlg 2" font-size="24" font-weight="400" font-style="normal" 
 >10</text>
</g>

<g fill="none" stroke="#000000" stroke-opacity="1" stroke-dasharray="1,2" stroke-dashoffset="0" stroke-width="1" stroke-linecap="square" stroke-linejoin="bevel" transform="matrix(1,0,0,1,0,0)"
font-family="MS Shell Dlg 2" font-size="24" font-weight="400" font-style="normal" 
>
<text fill="#000000" fill-opacity="1" stroke="none" xml:space="preserve" x="1" y="119" font-family="MS Shell Dlg 2" font-size="24" font-weight="400" font-style="normal" 
 >(</text>
</g>

<g fill="none" stroke="#000000" stroke-opacity="1" stroke-dasharray="1,2" stroke-dashoffset="0" stroke-width="1" stroke-linecap="square" stroke-linejoin="bevel" transform="matrix(1,0,0,1,0,0)"
font-family="MS Shell Dlg 2" font-size="24" font-weight="400" font-style="normal" 
>
<text fill="#000000" fill-opacity="1" stroke="none" xml:space="preserve" x="10" y="119" font-family="MS Shell Dlg 2" font-size="24" font-weight="400" font-style="normal" 
 >A</text>
</g>

<g fill="none" stroke="#000000" stroke-opacity="1" stroke-dasharray="1,2" stroke-dashoffset="0" stroke-width="1" stroke-linecap="square" stroke-linejoin="bevel" transform="matrix(1,0,0,1,0,0)"
font-family="MS Shell Dlg 2" font-size="24" font-weight="400" font-style="normal" 
>
<text fill="#000000" fill-opacity="1" stroke="none" xml:space="preserve" x="24" y="119" font-family="MS Shell Dlg 2" font-size="24" font-weight="400" font-style="normal" 
 >)</text>
</g>

<g fill="none" stroke="#000000" stroke-opacity="1" stroke-width="5" stroke-linecap="square" stroke-linejoin="bevel" transform="matrix(1,0,0,1,0,0)"
font-family="MS Shell Dlg 2" font-size="24" font-weight="400" font-style="normal" 
>
<path vector-effect="none" fill-rule="evenodd" d="M60,876 L46,876 M60,791 L46,791 M60,707 L46,707 M60,622 L46,622 M60,538 L46,538 M60,453 L46,453 M60,368 L46,368 M60,284 L46,284 M60,199 L46,199 M60,115 L46,115 M60,30 L46,30"/>
</g>

<g fill="none" stroke="#000000" stroke-opacity="1" stroke-dasharray="1,2" stroke-dashoffset="0" stroke-width="1" stroke-linecap="square" stroke-linejoin="bevel" transform="matrix(1,0,0,1,0,0)"
font-family="MS Shell Dlg 2" font-size="24" font-weight="400" font-style="normal" 
>
<path vector-effect="none" fill-rule="evenodd" d=""/>
</g>

<g fill="none" stroke="#0000ff" stroke-opacity="1" stroke-width="5" stroke-linecap="square" stroke-linejoin="bevel" transform="matrix(1,0,0,1,0,0)"
font-family="MS Shell Dlg 2" font-size="24" font-weight="400" font-style="normal" 
>
<polyline fill="none" vector-effect="none" points="61,876 62.1067,67.712 " />
<polyline fill="none" vector-effect="none" points="62.1067,67.712 65.7467,67.6848 " />
<polyline fill="none" vector-effect="none" points="65.7467,67.6848 67.5667,67.8381 " />
<polyline fill="none" vector-effect="none" points="67.5667,67.8381 68.78,67.7244 " />
<polyline fill="none" vector-effect="none" points="68.78,67.7244 69.9933,67.9809 " />
<polyline fill="none" vector-effect="none" points="69.9933,67.9809 71.8133,67.7709 " />
<polyline fill="none" vector-effect="none" points="71.8133,67.7709 73.0267,67.9502 " />
<polyline fill="none" vector-effect="none" points="73.0267,67.9502 74.8467,67.8203 " />
<polyline fill="none" vector-effect="none" points="74.8467,67.8203 76.06,67.9101 " />
<polyline fill="none" vector-effect="none" points="76.06,67.9101 77.2733,67.6769 " />
<polyline fill="none" vector-effect="none" points="77.2733,67.6769 79.0933,67.8641 " />
<polyline fill="none" vector-effect="none" points="79.0933,67.8641 80.3067,67.7088 " />
<polyline fill="none" vector-effect="none" points="80.3067,67.7088 82.1267,67.8162 " />
<polyline fill="none" vector-effect="none" points="82.1267,67.8162 83.34,67.7492 " />
<polyline fill="none" vector-effect="none" points="83.34,67.7492 84.5533,67.9596 " />
<polyline fill="none" vector-effect="none" points="84.5533,67.9596 86.3733,67.7944 " />
<polyline fill="none" vector-effect="none" points="86.3733,67.7944 87.5867,67.9267 " />
<polyline fill="none" vector-effect="none" points="87.5867,67.9267 89.4067,67.8406 " />
<polyline fill="none" vector-effect="none" points="89.4067,67.8406 90.62,67.8862 " />
<polyline fill="none" vector-effect="none" points="90.62,67.8862 91.8333,67.6981 " />
<polyline fill="none" vector-effect="none" points="91.8333,67.6981 93.6533,67.8419 " />
<polyline fill="none" vector-effect="none" points="93.6533,67.8419 94.8667,67.7319 " />
<polyline fill="none" vector-effect="none" points="94.8667,67.7319 96.6867,67.7974 " />
<polyline fill="none" vector-effect="none" points="96.6867,67.7974 97.9,67.7721 " />
<polyline fill="none" vector-effect="none" points="97.9,67.7721 99.1133,67.9385 " />
<polyline fill="none" vector-effect="none" points="99.1133,67.9385 100.933,67.8153 " />
<polyline fill="none" vector-effect="none" points="100.933,67.8153 102.147,67.9041 " />
<polyline fill="none" vector-effect="none" points="102.147,67.9041 103.967,67.858 " />
<polyline fill="none" vector-effect="none" points="103.967,67.858 105.787,67.6969 " />
<polyline fill="none" vector-effect="none" points="105.787,67.6969 119.74,67.8445 " />
<polyline fill="none" vector-effect="none" points="119.74,67.8445 121.56,67.9058 " />
<polyline fill="none" vector-effect="none" points="121.56,67.9058 125.807,67.7688 " />
<polyline fill="none" vector-effect="none" points="125.807,67.7688 129.447,67.7058 " />
<polyline fill="none" vector-effect="none" points="129.447,67.7058 131.267,67.8638 " />
<polyline fill="none" vector-effect="none" points="131.267,67.8638 133.087,67.8837 " />
<polyline fill="none" vector-effect="none" points="133.087,67.8837 136.727,67.9334 " />
<polyline fill="none" vector-effect="none" points="136.727,67.9334 138.547,67.7923 " />
<polyline fill="none" vector-effect="none" points="138.547,67.7923 140.367,67.7587 " />
<polyline fill="none" vector-effect="none" points="140.367,67.7587 144.613,67.8624 " />
<polyline fill="none" vector-effect="none" points="144.613,67.8624 148.253,67.9355 " />
<polyline fill="none" vector-effect="none" points="148.253,67.9355 150.68,67.9161 " />
<polyline fill="none" vector-effect="none" points="150.68,67.9161 290.82,67.8376 " />
<polyline fill="none" vector-effect="none" points="290.82,67.8376 295.067,67.7976 " />
<polyline fill="none" vector-effect="none" points="295.067,67.7976 299.313,67.8596 " />
<polyline fill="none" vector-effect="none" points="299.313,67.8596 303.56,67.7796 " />
<polyline fill="none" vector-effect="none" points="303.56,67.7796 308.413,67.8142 " />
<polyline fill="none" vector-effect="none" points="308.413,67.8142 315.087,67.7774 " />
<polyline fill="none" vector-effect="none" points="315.087,67.7774 319.94,67.8229 " />
<polyline fill="none" vector-effect="none" points="319.94,67.8229 326.613,67.7767 " />
<polyline fill="none" vector-effect="none" points="326.613,67.7767 333.287,67.8526 " />
<polyline fill="none" vector-effect="none" points="333.287,67.8526 351.487,67.8537 " />
<polyline fill="none" vector-effect="none" points="351.487,67.8537 356.947,67.8661 " />
<polyline fill="none" vector-effect="none" points="356.947,67.8661 365.44,67.8615 " />
<polyline fill="none" vector-effect="none" points="365.44,67.8615 387.887,67.8078 " />
<polyline fill="none" vector-effect="none" points="387.887,67.8078 395.167,67.8367 " />
<polyline fill="none" vector-effect="none" points="395.167,67.8367 402.447,67.8129 " />
<polyline fill="none" vector-effect="none" points="402.447,67.8129 409.727,67.8318 " />
<polyline fill="none" vector-effect="none" points="409.727,67.8318 417.613,67.852 " />
<polyline fill="none" vector-effect="none" points="417.613,67.852 455.227,67.8445 " />
<polyline fill="none" vector-effect="none" points="455.227,67.8445 972.107,67.8251 " />
<polyline fill="none" vector-effect="none" points="972.107,67.8251 972.713,876.5 " />
<polyline fill="none" vector-effect="none" points="972.713,876.5 1880.89,876.5 " />
</g>
</g>
</svg>
