<?xml version="1.0" encoding="UTF-8" standalone="no"?>
<svg width="574.322mm" height="292.1mm"
 xmlns="http://www.w3.org/2000/svg" xmlns:xlink="http://www.w3.org/1999/xlink"  version="1.2" baseProfile="tiny">
<title>Qt SVG Document</title>
<desc>Generated with Qt</desc>
<defs>
</defs>
<g fill="none" stroke="black" stroke-width="1" fill-rule="evenodd" stroke-linecap="square" stroke-linejoin="bevel" >

<g fill="none" stroke="#000000" stroke-opacity="1" stroke-width="1" stroke-linecap="square" stroke-linejoin="bevel" transform="matrix(1,0,0,1,0,0)"
font-family="MS Shell Dlg 2" font-size="24" font-weight="400" font-style="normal" 
>
<text fill="#000000" fill-opacity="1" stroke="none" xml:space="preserve" x="2" y="963" font-family="MS Shell Dlg 2" font-size="24" font-weight="400" font-style="normal" 
 >(file cw3.pl4; x-var t)  </text>
</g>

<g fill="none" stroke="#0000ff" stroke-opacity="1" stroke-width="1" stroke-linecap="square" stroke-linejoin="bevel" transform="matrix(1,0,0,1,0,0)"
font-family="MS Shell Dlg 2" font-size="24" font-weight="400" font-style="normal" 
>
<text fill="#0000ff" fill-opacity="1" stroke="none" xml:space="preserve" x="242" y="963" font-family="MS Shell Dlg 2" font-size="24" font-weight="400" font-style="normal" 
 >c:XX0002-XX0001    </text>
</g>

<g fill="none" stroke="#c0c0c0" stroke-opacity="1" stroke-width="5" stroke-linecap="square" stroke-linejoin="bevel" transform="matrix(1,0,0,1,0,0)"
font-family="MS Shell Dlg 2" font-size="24" font-weight="400" font-style="normal" 
>
<rect x="61" y="30" width="1821" height="847"/>
</g>

<g fill="none" stroke="#000000" stroke-opacity="1" stroke-width="1" stroke-linecap="square" stroke-linejoin="bevel" transform="matrix(1,0,0,1,0,0)"
font-family="MS Shell Dlg 2" font-size="24" font-weight="400" font-style="normal" 
>
<text fill="#000000" fill-opacity="1" stroke="none" xml:space="preserve" x="55" y="919" font-family="MS Shell Dlg 2" font-size="24" font-weight="400" font-style="normal" 
 >0</text>
</g>

<g fill="none" stroke="#000000" stroke-opacity="1" stroke-width="1" stroke-linecap="square" stroke-linejoin="bevel" transform="matrix(1,0,0,1,0,0)"
font-family="MS Shell Dlg 2" font-size="24" font-weight="400" font-style="normal" 
>
<text fill="#000000" fill-opacity="1" stroke="none" xml:space="preserve" x="348" y="919" font-family="MS Shell Dlg 2" font-size="24" font-weight="400" font-style="normal" 
 >0.5</text>
</g>

<g fill="none" stroke="#000000" stroke-opacity="1" stroke-width="1" stroke-linecap="square" stroke-linejoin="bevel" transform="matrix(1,0,0,1,0,0)"
font-family="MS Shell Dlg 2" font-size="24" font-weight="400" font-style="normal" 
>
<text fill="#000000" fill-opacity="1" stroke="none" xml:space="preserve" x="662" y="919" font-family="MS Shell Dlg 2" font-size="24" font-weight="400" font-style="normal" 
 >1</text>
</g>

<g fill="none" stroke="#000000" stroke-opacity="1" stroke-width="1" stroke-linecap="square" stroke-linejoin="bevel" transform="matrix(1,0,0,1,0,0)"
font-family="MS Shell Dlg 2" font-size="24" font-weight="400" font-style="normal" 
>
<text fill="#000000" fill-opacity="1" stroke="none" xml:space="preserve" x="955" y="919" font-family="MS Shell Dlg 2" font-size="24" font-weight="400" font-style="normal" 
 >1.5</text>
</g>

<g fill="none" stroke="#000000" stroke-opacity="1" stroke-width="1" stroke-linecap="square" stroke-linejoin="bevel" transform="matrix(1,0,0,1,0,0)"
font-family="MS Shell Dlg 2" font-size="24" font-weight="400" font-style="normal" 
>
<text fill="#000000" fill-opacity="1" stroke="none" xml:space="preserve" x="1268" y="919" font-family="MS Shell Dlg 2" font-size="24" font-weight="400" font-style="normal" 
 >2</text>
</g>

<g fill="none" stroke="#000000" stroke-opacity="1" stroke-width="1" stroke-linecap="square" stroke-linejoin="bevel" transform="matrix(1,0,0,1,0,0)"
font-family="MS Shell Dlg 2" font-size="24" font-weight="400" font-style="normal" 
>
<text fill="#000000" fill-opacity="1" stroke="none" xml:space="preserve" x="1562" y="919" font-family="MS Shell Dlg 2" font-size="24" font-weight="400" font-style="normal" 
 >2.5</text>
</g>

<g fill="none" stroke="#000000" stroke-opacity="1" stroke-width="1" stroke-linecap="square" stroke-linejoin="bevel" transform="matrix(1,0,0,1,0,0)"
font-family="MS Shell Dlg 2" font-size="24" font-weight="400" font-style="normal" 
>
<text fill="#000000" fill-opacity="1" stroke="none" xml:space="preserve" x="1875" y="919" font-family="MS Shell Dlg 2" font-size="24" font-weight="400" font-style="normal" 
 >3</text>
</g>

<g fill="none" stroke="#000000" stroke-opacity="1" stroke-width="1" stroke-linecap="square" stroke-linejoin="bevel" transform="matrix(1,0,0,1,0,0)"
font-family="MS Shell Dlg 2" font-size="24" font-weight="400" font-style="normal" 
>
<text fill="#000000" fill-opacity="1" stroke="none" xml:space="preserve" x="1715" y="919" font-family="MS Shell Dlg 2" font-size="24" font-weight="400" font-style="normal" 
 >(</text>
</g>

<g fill="none" stroke="#000000" stroke-opacity="1" stroke-width="1" stroke-linecap="square" stroke-linejoin="bevel" transform="matrix(1,0,0,1,0,0)"
font-family="MS Shell Dlg 2" font-size="24" font-weight="400" font-style="normal" 
>
<text fill="#000000" fill-opacity="1" stroke="none" xml:space="preserve" x="1724" y="919" font-family="MS Shell Dlg 2" font-size="24" font-weight="400" font-style="normal" 
 >s</text>
</g>

<g fill="none" stroke="#000000" stroke-opacity="1" stroke-width="1" stroke-linecap="square" stroke-linejoin="bevel" transform="matrix(1,0,0,1,0,0)"
font-family="MS Shell Dlg 2" font-size="24" font-weight="400" font-style="normal" 
>
<text fill="#000000" fill-opacity="1" stroke="none" xml:space="preserve" x="1735" y="919" font-family="MS Shell Dlg 2" font-size="24" font-weight="400" font-style="normal" 
 >)</text>
</g>

<g fill="none" stroke="#000000" stroke-opacity="1" stroke-width="5" stroke-linecap="square" stroke-linejoin="bevel" transform="matrix(1,0,0,1,0,0)"
font-family="MS Shell Dlg 2" font-size="24" font-weight="400" font-style="normal" 
>
<path vector-effect="none" fill-rule="evenodd" d="M61,877 L61,891 M364,877 L364,891 M668,877 L668,891 M971,877 L971,891 M1274,877 L1274,891 M1578,877 L1578,891 M1881,877 L1881,891"/>
</g>

<g fill="none" stroke="#000000" stroke-opacity="1" stroke-dasharray="1,2" stroke-dashoffset="0" stroke-width="1" stroke-linecap="square" stroke-linejoin="bevel" transform="matrix(1,0,0,1,0,0)"
font-family="MS Shell Dlg 2" font-size="24" font-weight="400" font-style="normal" 
>
<path vector-effect="none" fill-rule="evenodd" d=""/>
</g>

<g fill="none" stroke="#000000" stroke-opacity="1" stroke-dasharray="1,2" stroke-dashoffset="0" stroke-width="1" stroke-linecap="square" stroke-linejoin="bevel" transform="matrix(1,0,0,1,0,0)"
font-family="MS Shell Dlg 2" font-size="24" font-weight="400" font-style="normal" 
>
<text fill="#000000" fill-opacity="1" stroke="none" xml:space="preserve" x="25" y="886" font-family="MS Shell Dlg 2" font-size="24" font-weight="400" font-style="normal" 
 >0</text>
</g>

<g fill="none" stroke="#000000" stroke-opacity="1" stroke-dasharray="1,2" stroke-dashoffset="0" stroke-width="1" stroke-linecap="square" stroke-linejoin="bevel" transform="matrix(1,0,0,1,0,0)"
font-family="MS Shell Dlg 2" font-size="24" font-weight="400" font-style="normal" 
>
<text fill="#000000" fill-opacity="1" stroke="none" xml:space="preserve" x="25" y="717" font-family="MS Shell Dlg 2" font-size="24" font-weight="400" font-style="normal" 
 >2</text>
</g>

<g fill="none" stroke="#000000" stroke-opacity="1" stroke-dasharray="1,2" stroke-dashoffset="0" stroke-width="1" stroke-linecap="square" stroke-linejoin="bevel" transform="matrix(1,0,0,1,0,0)"
font-family="MS Shell Dlg 2" font-size="24" font-weight="400" font-style="normal" 
>
<text fill="#000000" fill-opacity="1" stroke="none" xml:space="preserve" x="25" y="548" font-family="MS Shell Dlg 2" font-size="24" font-weight="400" font-style="normal" 
 >4</text>
</g>

<g fill="none" stroke="#000000" stroke-opacity="1" stroke-dasharray="1,2" stroke-dashoffset="0" stroke-width="1" stroke-linecap="square" stroke-linejoin="bevel" transform="matrix(1,0,0,1,0,0)"
font-family="MS Shell Dlg 2" font-size="24" font-weight="400" font-style="normal" 
>
<text fill="#000000" fill-opacity="1" stroke="none" xml:space="preserve" x="25" y="378" font-family="MS Shell Dlg 2" font-size="24" font-weight="400" font-style="normal" 
 >6</text>
</g>

<g fill="none" stroke="#000000" stroke-opacity="1" stroke-dasharray="1,2" stroke-dashoffset="0" stroke-width="1" stroke-linecap="square" stroke-linejoin="bevel" transform="matrix(1,0,0,1,0,0)"
font-family="MS Shell Dlg 2" font-size="24" font-weight="400" font-style="normal" 
>
<text fill="#000000" fill-opacity="1" stroke="none" xml:space="preserve" x="25" y="209" font-family="MS Shell Dlg 2" font-size="24" font-weight="400" font-style="normal" 
 >8</text>
</g>

<g fill="none" stroke="#000000" stroke-opacity="1" stroke-dasharray="1,2" stroke-dashoffset="0" stroke-width="1" stroke-linecap="square" stroke-linejoin="bevel" transform="matrix(1,0,0,1,0,0)"
font-family="MS Shell Dlg 2" font-size="24" font-weight="400" font-style="normal" 
>
<text fill="#000000" fill-opacity="1" stroke="none" xml:space="preserve" x="12" y="40" font-family="MS Shell Dlg 2" font-size="24" font-weight="400" font-style="normal" 
 >10</text>
</g>

<g fill="none" stroke="#000000" stroke-opacity="1" stroke-dasharray="1,2" stroke-dashoffset="0" stroke-width="1" stroke-linecap="square" stroke-linejoin="bevel" transform="matrix(1,0,0,1,0,0)"
font-family="MS Shell Dlg 2" font-size="24" font-weight="400" font-style="normal" 
>
<text fill="#000000" fill-opacity="1" stroke="none" xml:space="preserve" x="1" y="119" font-family="MS Shell Dlg 2" font-size="24" font-weight="400" font-style="normal" 
 >(</text>
</g>

<g fill="none" stroke="#000000" stroke-opacity="1" stroke-dasharray="1,2" stroke-dashoffset="0" stroke-width="1" stroke-linecap="square" stroke-linejoin="bevel" transform="matrix(1,0,0,1,0,0)"
font-family="MS Shell Dlg 2" font-size="24" font-weight="400" font-style="normal" 
>
<text fill="#000000" fill-opacity="1" stroke="none" xml:space="preserve" x="10" y="119" font-family="MS Shell Dlg 2" font-size="24" font-weight="400" font-style="normal" 
 >A</text>
</g>

<g fill="none" stroke="#000000" stroke-opacity="1" stroke-dasharray="1,2" stroke-dashoffset="0" stroke-width="1" stroke-linecap="square" stroke-linejoin="bevel" transform="matrix(1,0,0,1,0,0)"
font-family="MS Shell Dlg 2" font-size="24" font-weight="400" font-style="normal" 
>
<text fill="#000000" fill-opacity="1" stroke="none" xml:space="preserve" x="24" y="119" font-family="MS Shell Dlg 2" font-size="24" font-weight="400" font-style="normal" 
 >)</text>
</g>

<g fill="none" stroke="#000000" stroke-opacity="1" stroke-width="5" stroke-linecap="square" stroke-linejoin="bevel" transform="matrix(1,0,0,1,0,0)"
font-family="MS Shell Dlg 2" font-size="24" font-weight="400" font-style="normal" 
>
<path vector-effect="none" fill-rule="evenodd" d="M60,876 L46,876 M60,791 L46,791 M60,707 L46,707 M60,622 L46,622 M60,538 L46,538 M60,453 L46,453 M60,368 L46,368 M60,284 L46,284 M60,199 L46,199 M60,115 L46,115 M60,30 L46,30"/>
</g>

<g fill="none" stroke="#000000" stroke-opacity="1" stroke-dasharray="1,2" stroke-dashoffset="0" stroke-width="1" stroke-linecap="square" stroke-linejoin="bevel" transform="matrix(1,0,0,1,0,0)"
font-family="MS Shell Dlg 2" font-size="24" font-weight="400" font-style="normal" 
>
<path vector-effect="none" fill-rule="evenodd" d=""/>
</g>

<g fill="none" stroke="#0000ff" stroke-opacity="1" stroke-width="5" stroke-linecap="square" stroke-linejoin="bevel" transform="matrix(1,0,0,1,0,0)"
font-family="MS Shell Dlg 2" font-size="24" font-weight="400" font-style="normal" 
>
<polyline fill="none" vector-effect="none" points="61,876 62.046,67.5971 " />
<polyline fill="none" vector-effect="none" points="62.046,67.5971 63.138,68.0185 " />
<polyline fill="none" vector-effect="none" points="63.138,68.0185 64.048,67.7792 " />
<polyline fill="none" vector-effect="none" points="64.048,67.7792 65.0793,67.7525 " />
<polyline fill="none" vector-effect="none" points="65.0793,67.7525 66.2927,67.9056 " />
<polyline fill="none" vector-effect="none" points="66.2927,67.9056 67.5667,67.7629 " />
<polyline fill="none" vector-effect="none" points="67.5667,67.7629 68.78,67.8951 " />
<polyline fill="none" vector-effect="none" points="68.78,67.8951 70.054,67.7732 " />
<polyline fill="none" vector-effect="none" points="70.054,67.7732 71.2673,67.8849 " />
<polyline fill="none" vector-effect="none" points="71.2673,67.8849 72.4807,67.7516 " />
<polyline fill="none" vector-effect="none" points="72.4807,67.7516 73.7547,67.875 " />
<polyline fill="none" vector-effect="none" points="73.7547,67.875 74.968,67.7615 " />
<polyline fill="none" vector-effect="none" points="74.968,67.7615 76.242,67.8653 " />
<polyline fill="none" vector-effect="none" points="76.242,67.8653 77.4553,67.7712 " />
<polyline fill="none" vector-effect="none" points="77.4553,67.7712 78.6687,67.8862 " />
<polyline fill="none" vector-effect="none" points="78.6687,67.8862 79.9427,67.7805 " />
<polyline fill="none" vector-effect="none" points="79.9427,67.7805 81.156,67.8768 " />
<polyline fill="none" vector-effect="none" points="81.156,67.8768 82.43,67.7897 " />
<polyline fill="none" vector-effect="none" points="82.43,67.7897 83.6433,67.8676 " />
<polyline fill="none" vector-effect="none" points="83.6433,67.8676 84.9173,67.7986 " />
<polyline fill="none" vector-effect="none" points="84.9173,67.7986 86.1307,67.8587 " />
<polyline fill="none" vector-effect="none" points="86.1307,67.8587 87.344,67.7784 " />
<polyline fill="none" vector-effect="none" points="87.344,67.7784 88.618,67.8501 " />
<polyline fill="none" vector-effect="none" points="88.618,67.8501 89.8313,67.7872 " />
<polyline fill="none" vector-effect="none" points="89.8313,67.7872 91.1053,67.8417 " />
<polyline fill="none" vector-effect="none" points="91.1053,67.8417 92.3187,67.7955 " />
<polyline fill="none" vector-effect="none" points="92.3187,67.7955 93.5927,67.8336 " />
<polyline fill="none" vector-effect="none" points="93.5927,67.8336 94.806,67.8037 " />
<polyline fill="none" vector-effect="none" points="94.806,67.8037 96.0193,67.8528 " />
<polyline fill="none" vector-effect="none" points="96.0193,67.8528 97.2933,67.8116 " />
<polyline fill="none" vector-effect="none" points="97.2933,67.8116 98.5067,67.8449 " />
<polyline fill="none" vector-effect="none" points="98.5067,67.8449 99.7807,67.8193 " />
<polyline fill="none" vector-effect="none" points="99.7807,67.8193 100.994,67.8372 " />
<polyline fill="none" vector-effect="none" points="100.994,67.8372 102.268,67.8265 " />
<polyline fill="none" vector-effect="none" points="102.268,67.8265 103.481,67.8298 " />
<polyline fill="none" vector-effect="none" points="103.481,67.8298 104.755,67.8336 " />
<polyline fill="none" vector-effect="none" points="104.755,67.8336 105.969,67.8227 " />
<polyline fill="none" vector-effect="none" points="105.969,67.8227 107.182,67.8155 " />
<polyline fill="none" vector-effect="none" points="107.182,67.8155 108.456,67.8157 " />
<polyline fill="none" vector-effect="none" points="108.456,67.8157 109.669,67.8225 " />
<polyline fill="none" vector-effect="none" points="109.669,67.8225 110.943,67.8091 " />
<polyline fill="none" vector-effect="none" points="110.943,67.8091 112.157,67.8292 " />
<polyline fill="none" vector-effect="none" points="112.157,67.8292 113.431,67.8028 " />
<polyline fill="none" vector-effect="none" points="113.431,67.8028 114.644,67.8356 " />
<polyline fill="none" vector-effect="none" points="114.644,67.8356 115.918,67.7968 " />
<polyline fill="none" vector-effect="none" points="115.918,67.7968 117.131,67.8419 " />
<polyline fill="none" vector-effect="none" points="117.131,67.8419 118.405,67.791 " />
<polyline fill="none" vector-effect="none" points="118.405,67.791 119.619,67.8477 " />
<polyline fill="none" vector-effect="none" points="119.619,67.8477 120.893,67.7856 " />
<polyline fill="none" vector-effect="none" points="120.893,67.7856 122.106,67.8534 " />
<polyline fill="none" vector-effect="none" points="122.106,67.8534 123.38,67.7805 " />
<polyline fill="none" vector-effect="none" points="123.38,67.7805 124.654,67.8792 " />
<polyline fill="none" vector-effect="none" points="124.654,67.8792 125.867,67.7756 " />
<polyline fill="none" vector-effect="none" points="125.867,67.7756 127.141,67.8836 " />
<polyline fill="none" vector-effect="none" points="127.141,67.8836 128.415,67.7523 " />
<polyline fill="none" vector-effect="none" points="128.415,67.7523 129.689,67.9051 " />
<polyline fill="none" vector-effect="none" points="129.689,67.9051 130.963,67.7327 " />
<polyline fill="none" vector-effect="none" points="130.963,67.7327 132.298,67.9349 " />
<polyline fill="none" vector-effect="none" points="132.298,67.9349 135.271,67.9219 " />
<polyline fill="none" vector-effect="none" points="135.271,67.9219 137.333,67.9439 " />
<polyline fill="none" vector-effect="none" points="137.333,67.9439 140.852,67.7379 " />
<polyline fill="none" vector-effect="none" points="140.852,67.7379 142.308,67.9422 " />
<polyline fill="none" vector-effect="none" points="142.308,67.9422 148.253,67.7448 " />
<polyline fill="none" vector-effect="none" points="148.253,67.7448 149.77,67.9381 " />
<polyline fill="none" vector-effect="none" points="149.77,67.9381 178.041,67.7411 " />
<polyline fill="none" vector-effect="none" points="178.041,67.7411 181.802,67.9085 " />
<polyline fill="none" vector-effect="none" points="181.802,67.9085 187.929,67.7466 " />
<polyline fill="none" vector-effect="none" points="187.929,67.7466 193.571,67.8046 " />
<polyline fill="none" vector-effect="none" points="193.571,67.8046 196.362,67.8673 " />
<polyline fill="none" vector-effect="none" points="196.362,67.8673 199.517,67.8806 " />
<polyline fill="none" vector-effect="none" points="199.517,67.8806 203.46,67.8073 " />
<polyline fill="none" vector-effect="none" points="203.46,67.8073 206.554,67.8958 " />
<polyline fill="none" vector-effect="none" points="206.554,67.8958 222.57,67.7616 " />
<polyline fill="none" vector-effect="none" points="222.57,67.7616 233.369,67.8499 " />
<polyline fill="none" vector-effect="none" points="233.369,67.8499 236.948,67.8156 " />
<polyline fill="none" vector-effect="none" points="236.948,67.8156 240.467,67.8047 " />
<polyline fill="none" vector-effect="none" points="240.467,67.8047 244.228,67.8343 " />
<polyline fill="none" vector-effect="none" points="244.228,67.8343 247.929,67.8125 " />
<polyline fill="none" vector-effect="none" points="247.929,67.8125 251.69,67.827 " />
<polyline fill="none" vector-effect="none" points="251.69,67.827 255.451,67.8272 " />
<polyline fill="none" vector-effect="none" points="255.451,67.8272 259.213,67.813 " />
<polyline fill="none" vector-effect="none" points="259.213,67.813 263.095,67.8527 " />
<polyline fill="none" vector-effect="none" points="263.095,67.8527 268.737,67.8523 " />
<polyline fill="none" vector-effect="none" points="268.737,67.8523 274.743,67.7847 " />
<polyline fill="none" vector-effect="none" points="274.743,67.7847 284.086,67.7993 " />
<polyline fill="none" vector-effect="none" points="284.086,67.7993 290.153,67.8374 " />
<polyline fill="none" vector-effect="none" points="290.153,67.8374 295.977,67.8418 " />
<polyline fill="none" vector-effect="none" points="295.977,67.8418 302.225,67.812 " />
<polyline fill="none" vector-effect="none" points="302.225,67.812 308.353,67.8383 " />
<polyline fill="none" vector-effect="none" points="308.353,67.8383 314.783,67.8293 " />
<polyline fill="none" vector-effect="none" points="314.783,67.8293 321.032,67.8127 " />
<polyline fill="none" vector-effect="none" points="321.032,67.8127 327.705,67.8519 " />
<polyline fill="none" vector-effect="none" points="327.705,67.8519 376.542,67.8271 " />
<polyline fill="none" vector-effect="none" points="376.542,67.8271 387.159,67.8393 " />
<polyline fill="none" vector-effect="none" points="387.159,67.8393 408.635,67.8255 " />
<polyline fill="none" vector-effect="none" points="408.635,67.8255 422.042,67.8279 " />
<polyline fill="none" vector-effect="none" points="422.042,67.8279 437.573,67.8117 " />
<polyline fill="none" vector-effect="none" points="437.573,67.8117 825.961,67.8234 " />
<polyline fill="none" vector-effect="none" points="825.961,67.8234 971.5,67.8234 " />
<polyline fill="none" vector-effect="none" points="971.5,67.8234 972.046,876.5 " />
<polyline fill="none" vector-effect="none" points="972.046,876.5 1881.44,876.5 " />
</g>
</g>
</svg>
