<?xml version="1.0" encoding="UTF-8" standalone="no"?>
<svg width="574.322mm" height="292.1mm"
 xmlns="http://www.w3.org/2000/svg" xmlns:xlink="http://www.w3.org/1999/xlink"  version="1.2" baseProfile="tiny">
<title>Qt SVG Document</title>
<desc>Generated with Qt</desc>
<defs>
</defs>
<g fill="none" stroke="black" stroke-width="1" fill-rule="evenodd" stroke-linecap="square" stroke-linejoin="bevel" >

<g fill="none" stroke="#000000" stroke-opacity="1" stroke-width="1" stroke-linecap="square" stroke-linejoin="bevel" transform="matrix(1,0,0,1,0,0)"
font-family="MS Shell Dlg 2" font-size="24" font-weight="400" font-style="normal" 
>
<text fill="#000000" fill-opacity="1" stroke="none" xml:space="preserve" x="2" y="963" font-family="MS Shell Dlg 2" font-size="24" font-weight="400" font-style="normal" 
 >(file cw3.pl4; x-var t)  </text>
</g>

<g fill="none" stroke="#0000ff" stroke-opacity="1" stroke-width="1" stroke-linecap="square" stroke-linejoin="bevel" transform="matrix(1,0,0,1,0,0)"
font-family="MS Shell Dlg 2" font-size="24" font-weight="400" font-style="normal" 
>
<text fill="#0000ff" fill-opacity="1" stroke="none" xml:space="preserve" x="242" y="963" font-family="MS Shell Dlg 2" font-size="24" font-weight="400" font-style="normal" 
 >c:XX0002-XX0001    </text>
</g>

<g fill="none" stroke="#c0c0c0" stroke-opacity="1" stroke-width="5" stroke-linecap="square" stroke-linejoin="bevel" transform="matrix(1,0,0,1,0,0)"
font-family="MS Shell Dlg 2" font-size="24" font-weight="400" font-style="normal" 
>
<rect x="61" y="30" width="1821" height="847"/>
</g>

<g fill="none" stroke="#000000" stroke-opacity="1" stroke-width="1" stroke-linecap="square" stroke-linejoin="bevel" transform="matrix(1,0,0,1,0,0)"
font-family="MS Shell Dlg 2" font-size="24" font-weight="400" font-style="normal" 
>
<text fill="#000000" fill-opacity="1" stroke="none" xml:space="preserve" x="55" y="919" font-family="MS Shell Dlg 2" font-size="24" font-weight="400" font-style="normal" 
 >0</text>
</g>

<g fill="none" stroke="#000000" stroke-opacity="1" stroke-width="1" stroke-linecap="square" stroke-linejoin="bevel" transform="matrix(1,0,0,1,0,0)"
font-family="MS Shell Dlg 2" font-size="24" font-weight="400" font-style="normal" 
>
<text fill="#000000" fill-opacity="1" stroke="none" xml:space="preserve" x="348" y="919" font-family="MS Shell Dlg 2" font-size="24" font-weight="400" font-style="normal" 
 >0.5</text>
</g>

<g fill="none" stroke="#000000" stroke-opacity="1" stroke-width="1" stroke-linecap="square" stroke-linejoin="bevel" transform="matrix(1,0,0,1,0,0)"
font-family="MS Shell Dlg 2" font-size="24" font-weight="400" font-style="normal" 
>
<text fill="#000000" fill-opacity="1" stroke="none" xml:space="preserve" x="662" y="919" font-family="MS Shell Dlg 2" font-size="24" font-weight="400" font-style="normal" 
 >1</text>
</g>

<g fill="none" stroke="#000000" stroke-opacity="1" stroke-width="1" stroke-linecap="square" stroke-linejoin="bevel" transform="matrix(1,0,0,1,0,0)"
font-family="MS Shell Dlg 2" font-size="24" font-weight="400" font-style="normal" 
>
<text fill="#000000" fill-opacity="1" stroke="none" xml:space="preserve" x="955" y="919" font-family="MS Shell Dlg 2" font-size="24" font-weight="400" font-style="normal" 
 >1.5</text>
</g>

<g fill="none" stroke="#000000" stroke-opacity="1" stroke-width="1" stroke-linecap="square" stroke-linejoin="bevel" transform="matrix(1,0,0,1,0,0)"
font-family="MS Shell Dlg 2" font-size="24" font-weight="400" font-style="normal" 
>
<text fill="#000000" fill-opacity="1" stroke="none" xml:space="preserve" x="1268" y="919" font-family="MS Shell Dlg 2" font-size="24" font-weight="400" font-style="normal" 
 >2</text>
</g>

<g fill="none" stroke="#000000" stroke-opacity="1" stroke-width="1" stroke-linecap="square" stroke-linejoin="bevel" transform="matrix(1,0,0,1,0,0)"
font-family="MS Shell Dlg 2" font-size="24" font-weight="400" font-style="normal" 
>
<text fill="#000000" fill-opacity="1" stroke="none" xml:space="preserve" x="1562" y="919" font-family="MS Shell Dlg 2" font-size="24" font-weight="400" font-style="normal" 
 >2.5</text>
</g>

<g fill="none" stroke="#000000" stroke-opacity="1" stroke-width="1" stroke-linecap="square" stroke-linejoin="bevel" transform="matrix(1,0,0,1,0,0)"
font-family="MS Shell Dlg 2" font-size="24" font-weight="400" font-style="normal" 
>
<text fill="#000000" fill-opacity="1" stroke="none" xml:space="preserve" x="1875" y="919" font-family="MS Shell Dlg 2" font-size="24" font-weight="400" font-style="normal" 
 >3</text>
</g>

<g fill="none" stroke="#000000" stroke-opacity="1" stroke-width="1" stroke-linecap="square" stroke-linejoin="bevel" transform="matrix(1,0,0,1,0,0)"
font-family="MS Shell Dlg 2" font-size="24" font-weight="400" font-style="normal" 
>
<text fill="#000000" fill-opacity="1" stroke="none" xml:space="preserve" x="1715" y="919" font-family="MS Shell Dlg 2" font-size="24" font-weight="400" font-style="normal" 
 >(</text>
</g>

<g fill="none" stroke="#000000" stroke-opacity="1" stroke-width="1" stroke-linecap="square" stroke-linejoin="bevel" transform="matrix(1,0,0,1,0,0)"
font-family="MS Shell Dlg 2" font-size="24" font-weight="400" font-style="normal" 
>
<text fill="#000000" fill-opacity="1" stroke="none" xml:space="preserve" x="1724" y="919" font-family="MS Shell Dlg 2" font-size="24" font-weight="400" font-style="normal" 
 >s</text>
</g>

<g fill="none" stroke="#000000" stroke-opacity="1" stroke-width="1" stroke-linecap="square" stroke-linejoin="bevel" transform="matrix(1,0,0,1,0,0)"
font-family="MS Shell Dlg 2" font-size="24" font-weight="400" font-style="normal" 
>
<text fill="#000000" fill-opacity="1" stroke="none" xml:space="preserve" x="1735" y="919" font-family="MS Shell Dlg 2" font-size="24" font-weight="400" font-style="normal" 
 >)</text>
</g>

<g fill="none" stroke="#000000" stroke-opacity="1" stroke-width="5" stroke-linecap="square" stroke-linejoin="bevel" transform="matrix(1,0,0,1,0,0)"
font-family="MS Shell Dlg 2" font-size="24" font-weight="400" font-style="normal" 
>
<path vector-effect="none" fill-rule="evenodd" d="M61,877 L61,891 M364,877 L364,891 M668,877 L668,891 M971,877 L971,891 M1274,877 L1274,891 M1578,877 L1578,891 M1881,877 L1881,891"/>
</g>

<g fill="none" stroke="#000000" stroke-opacity="1" stroke-dasharray="1,2" stroke-dashoffset="0" stroke-width="1" stroke-linecap="square" stroke-linejoin="bevel" transform="matrix(1,0,0,1,0,0)"
font-family="MS Shell Dlg 2" font-size="24" font-weight="400" font-style="normal" 
>
<path vector-effect="none" fill-rule="evenodd" d=""/>
</g>

<g fill="none" stroke="#000000" stroke-opacity="1" stroke-dasharray="1,2" stroke-dashoffset="0" stroke-width="1" stroke-linecap="square" stroke-linejoin="bevel" transform="matrix(1,0,0,1,0,0)"
font-family="MS Shell Dlg 2" font-size="24" font-weight="400" font-style="normal" 
>
<text fill="#000000" fill-opacity="1" stroke="none" xml:space="preserve" x="25" y="886" font-family="MS Shell Dlg 2" font-size="24" font-weight="400" font-style="normal" 
 >0</text>
</g>

<g fill="none" stroke="#000000" stroke-opacity="1" stroke-dasharray="1,2" stroke-dashoffset="0" stroke-width="1" stroke-linecap="square" stroke-linejoin="bevel" transform="matrix(1,0,0,1,0,0)"
font-family="MS Shell Dlg 2" font-size="24" font-weight="400" font-style="normal" 
>
<text fill="#000000" fill-opacity="1" stroke="none" xml:space="preserve" x="25" y="717" font-family="MS Shell Dlg 2" font-size="24" font-weight="400" font-style="normal" 
 >2</text>
</g>

<g fill="none" stroke="#000000" stroke-opacity="1" stroke-dasharray="1,2" stroke-dashoffset="0" stroke-width="1" stroke-linecap="square" stroke-linejoin="bevel" transform="matrix(1,0,0,1,0,0)"
font-family="MS Shell Dlg 2" font-size="24" font-weight="400" font-style="normal" 
>
<text fill="#000000" fill-opacity="1" stroke="none" xml:space="preserve" x="25" y="548" font-family="MS Shell Dlg 2" font-size="24" font-weight="400" font-style="normal" 
 >4</text>
</g>

<g fill="none" stroke="#000000" stroke-opacity="1" stroke-dasharray="1,2" stroke-dashoffset="0" stroke-width="1" stroke-linecap="square" stroke-linejoin="bevel" transform="matrix(1,0,0,1,0,0)"
font-family="MS Shell Dlg 2" font-size="24" font-weight="400" font-style="normal" 
>
<text fill="#000000" fill-opacity="1" stroke="none" xml:space="preserve" x="25" y="378" font-family="MS Shell Dlg 2" font-size="24" font-weight="400" font-style="normal" 
 >6</text>
</g>

<g fill="none" stroke="#000000" stroke-opacity="1" stroke-dasharray="1,2" stroke-dashoffset="0" stroke-width="1" stroke-linecap="square" stroke-linejoin="bevel" transform="matrix(1,0,0,1,0,0)"
font-family="MS Shell Dlg 2" font-size="24" font-weight="400" font-style="normal" 
>
<text fill="#000000" fill-opacity="1" stroke="none" xml:space="preserve" x="25" y="209" font-family="MS Shell Dlg 2" font-size="24" font-weight="400" font-style="normal" 
 >8</text>
</g>

<g fill="none" stroke="#000000" stroke-opacity="1" stroke-dasharray="1,2" stroke-dashoffset="0" stroke-width="1" stroke-linecap="square" stroke-linejoin="bevel" transform="matrix(1,0,0,1,0,0)"
font-family="MS Shell Dlg 2" font-size="24" font-weight="400" font-style="normal" 
>
<text fill="#000000" fill-opacity="1" stroke="none" xml:space="preserve" x="12" y="40" font-family="MS Shell Dlg 2" font-size="24" font-weight="400" font-style="normal" 
 >10</text>
</g>

<g fill="none" stroke="#000000" stroke-opacity="1" stroke-dasharray="1,2" stroke-dashoffset="0" stroke-width="1" stroke-linecap="square" stroke-linejoin="bevel" transform="matrix(1,0,0,1,0,0)"
font-family="MS Shell Dlg 2" font-size="24" font-weight="400" font-style="normal" 
>
<text fill="#000000" fill-opacity="1" stroke="none" xml:space="preserve" x="1" y="119" font-family="MS Shell Dlg 2" font-size="24" font-weight="400" font-style="normal" 
 >(</text>
</g>

<g fill="none" stroke="#000000" stroke-opacity="1" stroke-dasharray="1,2" stroke-dashoffset="0" stroke-width="1" stroke-linecap="square" stroke-linejoin="bevel" transform="matrix(1,0,0,1,0,0)"
font-family="MS Shell Dlg 2" font-size="24" font-weight="400" font-style="normal" 
>
<text fill="#000000" fill-opacity="1" stroke="none" xml:space="preserve" x="10" y="119" font-family="MS Shell Dlg 2" font-size="24" font-weight="400" font-style="normal" 
 >A</text>
</g>

<g fill="none" stroke="#000000" stroke-opacity="1" stroke-dasharray="1,2" stroke-dashoffset="0" stroke-width="1" stroke-linecap="square" stroke-linejoin="bevel" transform="matrix(1,0,0,1,0,0)"
font-family="MS Shell Dlg 2" font-size="24" font-weight="400" font-style="normal" 
>
<text fill="#000000" fill-opacity="1" stroke="none" xml:space="preserve" x="24" y="119" font-family="MS Shell Dlg 2" font-size="24" font-weight="400" font-style="normal" 
 >)</text>
</g>

<g fill="none" stroke="#000000" stroke-opacity="1" stroke-width="5" stroke-linecap="square" stroke-linejoin="bevel" transform="matrix(1,0,0,1,0,0)"
font-family="MS Shell Dlg 2" font-size="24" font-weight="400" font-style="normal" 
>
<path vector-effect="none" fill-rule="evenodd" d="M60,876 L46,876 M60,791 L46,791 M60,707 L46,707 M60,622 L46,622 M60,538 L46,538 M60,453 L46,453 M60,368 L46,368 M60,284 L46,284 M60,199 L46,199 M60,115 L46,115 M60,30 L46,30"/>
</g>

<g fill="none" stroke="#000000" stroke-opacity="1" stroke-dasharray="1,2" stroke-dashoffset="0" stroke-width="1" stroke-linecap="square" stroke-linejoin="bevel" transform="matrix(1,0,0,1,0,0)"
font-family="MS Shell Dlg 2" font-size="24" font-weight="400" font-style="normal" 
>
<path vector-effect="none" fill-rule="evenodd" d=""/>
</g>

<g fill="none" stroke="#0000ff" stroke-opacity="1" stroke-width="5" stroke-linecap="square" stroke-linejoin="bevel" transform="matrix(1,0,0,1,0,0)"
font-family="MS Shell Dlg 2" font-size="24" font-weight="400" font-style="normal" 
>
<polyline fill="none" vector-effect="none" points="61,876 62.1067,67.5935 " />
<polyline fill="none" vector-effect="none" points="62.1067,67.5935 63.9267,67.8489 " />
<polyline fill="none" vector-effect="none" points="63.9267,67.8489 65.14,67.7861 " />
<polyline fill="none" vector-effect="none" points="65.14,67.7861 66.3533,67.8728 " />
<polyline fill="none" vector-effect="none" points="66.3533,67.8728 67.5667,67.7629 " />
<polyline fill="none" vector-effect="none" points="67.5667,67.7629 68.78,67.8951 " />
<polyline fill="none" vector-effect="none" points="68.78,67.8951 69.9933,67.7414 " />
<polyline fill="none" vector-effect="none" points="69.9933,67.7414 71.2067,67.9158 " />
<polyline fill="none" vector-effect="none" points="71.2067,67.9158 72.42,67.7217 " />
<polyline fill="none" vector-effect="none" points="72.42,67.7217 73.6333,67.9345 " />
<polyline fill="none" vector-effect="none" points="73.6333,67.9345 74.8467,67.704 " />
<polyline fill="none" vector-effect="none" points="74.8467,67.704 76.06,67.9511 " />
<polyline fill="none" vector-effect="none" points="76.06,67.9511 77.2733,67.6885 " />
<polyline fill="none" vector-effect="none" points="77.2733,67.6885 78.4867,67.9655 " />
<polyline fill="none" vector-effect="none" points="78.4867,67.9655 79.7,67.6752 " />
<polyline fill="none" vector-effect="none" points="79.7,67.6752 80.9133,67.9776 " />
<polyline fill="none" vector-effect="none" points="80.9133,67.9776 82.1267,67.6643 " />
<polyline fill="none" vector-effect="none" points="82.1267,67.6643 83.34,67.9874 " />
<polyline fill="none" vector-effect="none" points="83.34,67.9874 84.5533,67.6557 " />
<polyline fill="none" vector-effect="none" points="84.5533,67.6557 85.7667,67.9947 " />
<polyline fill="none" vector-effect="none" points="85.7667,67.9947 86.98,67.6496 " />
<polyline fill="none" vector-effect="none" points="86.98,67.6496 88.1933,67.9997 " />
<polyline fill="none" vector-effect="none" points="88.1933,67.9997 89.4067,67.6459 " />
<polyline fill="none" vector-effect="none" points="89.4067,67.6459 90.62,68.0023 " />
<polyline fill="none" vector-effect="none" points="90.62,68.0023 92.44,67.8513 " />
<polyline fill="none" vector-effect="none" points="92.44,67.8513 93.6533,67.806 " />
<polyline fill="none" vector-effect="none" points="93.6533,67.806 94.8667,67.8311 " />
<polyline fill="none" vector-effect="none" points="94.8667,67.8311 96.08,67.8258 " />
<polyline fill="none" vector-effect="none" points="96.08,67.8258 97.2933,67.8116 " />
<polyline fill="none" vector-effect="none" points="97.2933,67.8116 98.5067,67.8449 " />
<polyline fill="none" vector-effect="none" points="98.5067,67.8449 99.72,67.793 " />
<polyline fill="none" vector-effect="none" points="99.72,67.793 100.933,67.863 " />
<polyline fill="none" vector-effect="none" points="100.933,67.863 102.147,67.7755 " />
<polyline fill="none" vector-effect="none" points="102.147,67.7755 103.36,67.8799 " />
<polyline fill="none" vector-effect="none" points="103.36,67.8799 104.573,67.7592 " />
<polyline fill="none" vector-effect="none" points="104.573,67.7592 105.787,67.8956 " />
<polyline fill="none" vector-effect="none" points="105.787,67.8956 107,67.7443 " />
<polyline fill="none" vector-effect="none" points="107,67.7443 108.213,67.9097 " />
<polyline fill="none" vector-effect="none" points="108.213,67.9097 109.427,67.7309 " />
<polyline fill="none" vector-effect="none" points="109.427,67.7309 110.64,67.9222 " />
<polyline fill="none" vector-effect="none" points="110.64,67.9222 111.853,67.7193 " />
<polyline fill="none" vector-effect="none" points="111.853,67.7193 113.067,67.933 " />
<polyline fill="none" vector-effect="none" points="113.067,67.933 114.28,67.7093 " />
<polyline fill="none" vector-effect="none" points="114.28,67.7093 115.493,67.9421 " />
<polyline fill="none" vector-effect="none" points="115.493,67.9421 116.707,67.7012 " />
<polyline fill="none" vector-effect="none" points="116.707,67.7012 117.92,67.9493 " />
<polyline fill="none" vector-effect="none" points="117.92,67.9493 119.133,67.6949 " />
<polyline fill="none" vector-effect="none" points="119.133,67.6949 120.953,67.7646 " />
<polyline fill="none" vector-effect="none" points="120.953,67.7646 123.987,67.6878 " />
<polyline fill="none" vector-effect="none" points="123.987,67.6878 125.807,67.7963 " />
<polyline fill="none" vector-effect="none" points="125.807,67.7963 128.84,67.6878 " />
<polyline fill="none" vector-effect="none" points="128.84,67.6878 130.66,67.8269 " />
<polyline fill="none" vector-effect="none" points="130.66,67.8269 131.873,67.8129 " />
<polyline fill="none" vector-effect="none" points="131.873,67.8129 133.087,67.8414 " />
<polyline fill="none" vector-effect="none" points="133.087,67.8414 134.3,67.7987 " />
<polyline fill="none" vector-effect="none" points="134.3,67.7987 135.513,67.8551 " />
<polyline fill="none" vector-effect="none" points="135.513,67.8551 136.727,67.7855 " />
<polyline fill="none" vector-effect="none" points="136.727,67.7855 137.94,67.8679 " />
<polyline fill="none" vector-effect="none" points="137.94,67.8679 139.153,67.7731 " />
<polyline fill="none" vector-effect="none" points="139.153,67.7731 140.367,67.8797 " />
<polyline fill="none" vector-effect="none" points="140.367,67.8797 141.58,67.7619 " />
<polyline fill="none" vector-effect="none" points="141.58,67.7619 142.793,67.8903 " />
<polyline fill="none" vector-effect="none" points="142.793,67.8903 144.007,67.7518 " />
<polyline fill="none" vector-effect="none" points="144.007,67.7518 145.827,67.7341 " />
<polyline fill="none" vector-effect="none" points="145.827,67.7341 182.227,67.8886 " />
<polyline fill="none" vector-effect="none" points="182.227,67.8886 185.26,67.773 " />
<polyline fill="none" vector-effect="none" points="185.26,67.773 196.18,67.8329 " />
<polyline fill="none" vector-effect="none" points="196.18,67.8329 199.82,67.8274 " />
<polyline fill="none" vector-effect="none" points="199.82,67.8274 203.46,67.8073 " />
<polyline fill="none" vector-effect="none" points="203.46,67.8073 207.1,67.851 " />
<polyline fill="none" vector-effect="none" points="207.1,67.851 210.74,67.7863 " />
<polyline fill="none" vector-effect="none" points="210.74,67.7863 214.38,67.869 " />
<polyline fill="none" vector-effect="none" points="214.38,67.869 218.02,67.7715 " />
<polyline fill="none" vector-effect="none" points="218.02,67.7715 221.66,67.8803 " />
<polyline fill="none" vector-effect="none" points="221.66,67.8803 225.3,67.7639 " />
<polyline fill="none" vector-effect="none" points="225.3,67.7639 228.94,67.8843 " />
<polyline fill="none" vector-effect="none" points="228.94,67.8843 233.187,67.8232 " />
<polyline fill="none" vector-effect="none" points="233.187,67.8232 238.647,67.879 " />
<polyline fill="none" vector-effect="none" points="238.647,67.879 247.14,67.7807 " />
<polyline fill="none" vector-effect="none" points="247.14,67.7807 278.687,67.8442 " />
<polyline fill="none" vector-effect="none" points="278.687,67.8442 284.147,67.7947 " />
<polyline fill="none" vector-effect="none" points="284.147,67.7947 971.5,67.8234 " />
<polyline fill="none" vector-effect="none" points="971.5,67.8234 972.107,876.5 " />
<polyline fill="none" vector-effect="none" points="972.107,876.5 1880.89,876.5 " />
</g>
</g>
</svg>
