<?xml version="1.0" encoding="UTF-8" standalone="no"?>
<svg width="574.322mm" height="292.1mm"
 xmlns="http://www.w3.org/2000/svg" xmlns:xlink="http://www.w3.org/1999/xlink"  version="1.2" baseProfile="tiny">
<title>Qt SVG Document</title>
<desc>Generated with Qt</desc>
<defs>
</defs>
<g fill="none" stroke="black" stroke-width="1" fill-rule="evenodd" stroke-linecap="square" stroke-linejoin="bevel" >

<g fill="none" stroke="#000000" stroke-opacity="1" stroke-width="1" stroke-linecap="square" stroke-linejoin="bevel" transform="matrix(1,0,0,1,0,0)"
font-family="MS Shell Dlg 2" font-size="24" font-weight="400" font-style="normal" 
>
<text fill="#000000" fill-opacity="1" stroke="none" xml:space="preserve" x="2" y="963" font-family="MS Shell Dlg 2" font-size="24" font-weight="400" font-style="normal" 
 >(file cw3.pl4; x-var t)  </text>
</g>

<g fill="none" stroke="#0000ff" stroke-opacity="1" stroke-width="1" stroke-linecap="square" stroke-linejoin="bevel" transform="matrix(1,0,0,1,0,0)"
font-family="MS Shell Dlg 2" font-size="24" font-weight="400" font-style="normal" 
>
<text fill="#0000ff" fill-opacity="1" stroke="none" xml:space="preserve" x="242" y="963" font-family="MS Shell Dlg 2" font-size="24" font-weight="400" font-style="normal" 
 >c:XX0002-XX0001    </text>
</g>

<g fill="none" stroke="#000000" stroke-opacity="1" stroke-width="5" stroke-linecap="square" stroke-linejoin="bevel" transform="matrix(1,0,0,1,0,0)"
font-family="MS Shell Dlg 2" font-size="24" font-weight="400" font-style="normal" 
>
<rect x="61" y="30" width="1821" height="847"/>
</g>

<g fill="none" stroke="#000000" stroke-opacity="1" stroke-width="1" stroke-linecap="square" stroke-linejoin="bevel" transform="matrix(1,0,0,1,0,0)"
font-family="MS Shell Dlg 2" font-size="24" font-weight="400" font-style="normal" 
>
<text fill="#000000" fill-opacity="1" stroke="none" xml:space="preserve" x="55" y="919" font-family="MS Shell Dlg 2" font-size="24" font-weight="400" font-style="normal" 
 >0</text>
</g>

<g fill="none" stroke="#000000" stroke-opacity="1" stroke-width="1" stroke-linecap="square" stroke-linejoin="bevel" transform="matrix(1,0,0,1,0,0)"
font-family="MS Shell Dlg 2" font-size="24" font-weight="400" font-style="normal" 
>
<text fill="#000000" fill-opacity="1" stroke="none" xml:space="preserve" x="341" y="919" font-family="MS Shell Dlg 2" font-size="24" font-weight="400" font-style="normal" 
 >0.02</text>
</g>

<g fill="none" stroke="#000000" stroke-opacity="1" stroke-width="1" stroke-linecap="square" stroke-linejoin="bevel" transform="matrix(1,0,0,1,0,0)"
font-family="MS Shell Dlg 2" font-size="24" font-weight="400" font-style="normal" 
>
<text fill="#000000" fill-opacity="1" stroke="none" xml:space="preserve" x="645" y="919" font-family="MS Shell Dlg 2" font-size="24" font-weight="400" font-style="normal" 
 >0.04</text>
</g>

<g fill="none" stroke="#000000" stroke-opacity="1" stroke-width="1" stroke-linecap="square" stroke-linejoin="bevel" transform="matrix(1,0,0,1,0,0)"
font-family="MS Shell Dlg 2" font-size="24" font-weight="400" font-style="normal" 
>
<text fill="#000000" fill-opacity="1" stroke="none" xml:space="preserve" x="948" y="919" font-family="MS Shell Dlg 2" font-size="24" font-weight="400" font-style="normal" 
 >0.06</text>
</g>

<g fill="none" stroke="#000000" stroke-opacity="1" stroke-width="1" stroke-linecap="square" stroke-linejoin="bevel" transform="matrix(1,0,0,1,0,0)"
font-family="MS Shell Dlg 2" font-size="24" font-weight="400" font-style="normal" 
>
<text fill="#000000" fill-opacity="1" stroke="none" xml:space="preserve" x="1251" y="919" font-family="MS Shell Dlg 2" font-size="24" font-weight="400" font-style="normal" 
 >0.08</text>
</g>

<g fill="none" stroke="#000000" stroke-opacity="1" stroke-width="1" stroke-linecap="square" stroke-linejoin="bevel" transform="matrix(1,0,0,1,0,0)"
font-family="MS Shell Dlg 2" font-size="24" font-weight="400" font-style="normal" 
>
<text fill="#000000" fill-opacity="1" stroke="none" xml:space="preserve" x="1562" y="919" font-family="MS Shell Dlg 2" font-size="24" font-weight="400" font-style="normal" 
 >0.1</text>
</g>

<g fill="none" stroke="#000000" stroke-opacity="1" stroke-width="1" stroke-linecap="square" stroke-linejoin="bevel" transform="matrix(1,0,0,1,0,0)"
font-family="MS Shell Dlg 2" font-size="24" font-weight="400" font-style="normal" 
>
<text fill="#000000" fill-opacity="1" stroke="none" xml:space="preserve" x="1858" y="919" font-family="MS Shell Dlg 2" font-size="24" font-weight="400" font-style="normal" 
 >0.12</text>
</g>

<g fill="none" stroke="#000000" stroke-opacity="1" stroke-width="1" stroke-linecap="square" stroke-linejoin="bevel" transform="matrix(1,0,0,1,0,0)"
font-family="MS Shell Dlg 2" font-size="24" font-weight="400" font-style="normal" 
>
<text fill="#000000" fill-opacity="1" stroke="none" xml:space="preserve" x="1715" y="919" font-family="MS Shell Dlg 2" font-size="24" font-weight="400" font-style="normal" 
 >(</text>
</g>

<g fill="none" stroke="#000000" stroke-opacity="1" stroke-width="1" stroke-linecap="square" stroke-linejoin="bevel" transform="matrix(1,0,0,1,0,0)"
font-family="MS Shell Dlg 2" font-size="24" font-weight="400" font-style="normal" 
>
<text fill="#000000" fill-opacity="1" stroke="none" xml:space="preserve" x="1724" y="919" font-family="MS Shell Dlg 2" font-size="24" font-weight="400" font-style="normal" 
 >s</text>
</g>

<g fill="none" stroke="#000000" stroke-opacity="1" stroke-width="1" stroke-linecap="square" stroke-linejoin="bevel" transform="matrix(1,0,0,1,0,0)"
font-family="MS Shell Dlg 2" font-size="24" font-weight="400" font-style="normal" 
>
<text fill="#000000" fill-opacity="1" stroke="none" xml:space="preserve" x="1735" y="919" font-family="MS Shell Dlg 2" font-size="24" font-weight="400" font-style="normal" 
 >)</text>
</g>

<g fill="none" stroke="#000000" stroke-opacity="1" stroke-width="5" stroke-linecap="square" stroke-linejoin="bevel" transform="matrix(1,0,0,1,0,0)"
font-family="MS Shell Dlg 2" font-size="24" font-weight="400" font-style="normal" 
>
<path vector-effect="none" fill-rule="evenodd" d="M61,877 L61,891 M364,877 L364,891 M668,877 L668,891 M971,877 L971,891 M1274,877 L1274,891 M1578,877 L1578,891 M1881,877 L1881,891"/>
</g>

<g fill="none" stroke="#000000" stroke-opacity="1" stroke-dasharray="1,2" stroke-dashoffset="0" stroke-width="1" stroke-linecap="square" stroke-linejoin="bevel" transform="matrix(1,0,0,1,0,0)"
font-family="MS Shell Dlg 2" font-size="24" font-weight="400" font-style="normal" 
>
<path vector-effect="none" fill-rule="evenodd" d=""/>
</g>

<g fill="none" stroke="#000000" stroke-opacity="1" stroke-dasharray="1,2" stroke-dashoffset="0" stroke-width="1" stroke-linecap="square" stroke-linejoin="bevel" transform="matrix(1,0,0,1,0,0)"
font-family="MS Shell Dlg 2" font-size="24" font-weight="400" font-style="normal" 
>
<text fill="#000000" fill-opacity="1" stroke="none" xml:space="preserve" x="25" y="886" font-family="MS Shell Dlg 2" font-size="24" font-weight="400" font-style="normal" 
 >0</text>
</g>

<g fill="none" stroke="#000000" stroke-opacity="1" stroke-dasharray="1,2" stroke-dashoffset="0" stroke-width="1" stroke-linecap="square" stroke-linejoin="bevel" transform="matrix(1,0,0,1,0,0)"
font-family="MS Shell Dlg 2" font-size="24" font-weight="400" font-style="normal" 
>
<text fill="#000000" fill-opacity="1" stroke="none" xml:space="preserve" x="25" y="717" font-family="MS Shell Dlg 2" font-size="24" font-weight="400" font-style="normal" 
 >2</text>
</g>

<g fill="none" stroke="#000000" stroke-opacity="1" stroke-dasharray="1,2" stroke-dashoffset="0" stroke-width="1" stroke-linecap="square" stroke-linejoin="bevel" transform="matrix(1,0,0,1,0,0)"
font-family="MS Shell Dlg 2" font-size="24" font-weight="400" font-style="normal" 
>
<text fill="#000000" fill-opacity="1" stroke="none" xml:space="preserve" x="25" y="548" font-family="MS Shell Dlg 2" font-size="24" font-weight="400" font-style="normal" 
 >4</text>
</g>

<g fill="none" stroke="#000000" stroke-opacity="1" stroke-dasharray="1,2" stroke-dashoffset="0" stroke-width="1" stroke-linecap="square" stroke-linejoin="bevel" transform="matrix(1,0,0,1,0,0)"
font-family="MS Shell Dlg 2" font-size="24" font-weight="400" font-style="normal" 
>
<text fill="#000000" fill-opacity="1" stroke="none" xml:space="preserve" x="25" y="378" font-family="MS Shell Dlg 2" font-size="24" font-weight="400" font-style="normal" 
 >6</text>
</g>

<g fill="none" stroke="#000000" stroke-opacity="1" stroke-dasharray="1,2" stroke-dashoffset="0" stroke-width="1" stroke-linecap="square" stroke-linejoin="bevel" transform="matrix(1,0,0,1,0,0)"
font-family="MS Shell Dlg 2" font-size="24" font-weight="400" font-style="normal" 
>
<text fill="#000000" fill-opacity="1" stroke="none" xml:space="preserve" x="25" y="209" font-family="MS Shell Dlg 2" font-size="24" font-weight="400" font-style="normal" 
 >8</text>
</g>

<g fill="none" stroke="#000000" stroke-opacity="1" stroke-dasharray="1,2" stroke-dashoffset="0" stroke-width="1" stroke-linecap="square" stroke-linejoin="bevel" transform="matrix(1,0,0,1,0,0)"
font-family="MS Shell Dlg 2" font-size="24" font-weight="400" font-style="normal" 
>
<text fill="#000000" fill-opacity="1" stroke="none" xml:space="preserve" x="12" y="40" font-family="MS Shell Dlg 2" font-size="24" font-weight="400" font-style="normal" 
 >10</text>
</g>

<g fill="none" stroke="#000000" stroke-opacity="1" stroke-dasharray="1,2" stroke-dashoffset="0" stroke-width="1" stroke-linecap="square" stroke-linejoin="bevel" transform="matrix(1,0,0,1,0,0)"
font-family="MS Shell Dlg 2" font-size="24" font-weight="400" font-style="normal" 
>
<text fill="#000000" fill-opacity="1" stroke="none" xml:space="preserve" x="1" y="119" font-family="MS Shell Dlg 2" font-size="24" font-weight="400" font-style="normal" 
 >(</text>
</g>

<g fill="none" stroke="#000000" stroke-opacity="1" stroke-dasharray="1,2" stroke-dashoffset="0" stroke-width="1" stroke-linecap="square" stroke-linejoin="bevel" transform="matrix(1,0,0,1,0,0)"
font-family="MS Shell Dlg 2" font-size="24" font-weight="400" font-style="normal" 
>
<text fill="#000000" fill-opacity="1" stroke="none" xml:space="preserve" x="10" y="119" font-family="MS Shell Dlg 2" font-size="24" font-weight="400" font-style="normal" 
 >A</text>
</g>

<g fill="none" stroke="#000000" stroke-opacity="1" stroke-dasharray="1,2" stroke-dashoffset="0" stroke-width="1" stroke-linecap="square" stroke-linejoin="bevel" transform="matrix(1,0,0,1,0,0)"
font-family="MS Shell Dlg 2" font-size="24" font-weight="400" font-style="normal" 
>
<text fill="#000000" fill-opacity="1" stroke="none" xml:space="preserve" x="24" y="119" font-family="MS Shell Dlg 2" font-size="24" font-weight="400" font-style="normal" 
 >)</text>
</g>

<g fill="none" stroke="#000000" stroke-opacity="1" stroke-width="5" stroke-linecap="square" stroke-linejoin="bevel" transform="matrix(1,0,0,1,0,0)"
font-family="MS Shell Dlg 2" font-size="24" font-weight="400" font-style="normal" 
>
<path vector-effect="none" fill-rule="evenodd" d="M60,876 L46,876 M60,791 L46,791 M60,707 L46,707 M60,622 L46,622 M60,538 L46,538 M60,453 L46,453 M60,368 L46,368 M60,284 L46,284 M60,199 L46,199 M60,115 L46,115 M60,30 L46,30"/>
</g>

<g fill="none" stroke="#000000" stroke-opacity="1" stroke-dasharray="1,2" stroke-dashoffset="0" stroke-width="1" stroke-linecap="square" stroke-linejoin="bevel" transform="matrix(1,0,0,1,0,0)"
font-family="MS Shell Dlg 2" font-size="24" font-weight="400" font-style="normal" 
>
<path vector-effect="none" fill-rule="evenodd" d=""/>
</g>

<g fill="none" stroke="#0000ff" stroke-opacity="1" stroke-width="5" stroke-linecap="square" stroke-linejoin="bevel" transform="matrix(1,0,0,1,0,0)"
font-family="MS Shell Dlg 2" font-size="24" font-weight="400" font-style="normal" 
>
<polyline fill="none" vector-effect="none" points="61,876 63.0167,67.788 " />
<polyline fill="none" vector-effect="none" points="63.0167,67.788 87.2833,67.7099 " />
<polyline fill="none" vector-effect="none" points="87.2833,67.7099 119.133,67.9161 " />
<polyline fill="none" vector-effect="none" points="119.133,67.9161 149.467,67.7207 " />
<polyline fill="none" vector-effect="none" points="149.467,67.7207 181.317,67.9054 " />
<polyline fill="none" vector-effect="none" points="181.317,67.9054 211.65,67.7312 " />
<polyline fill="none" vector-effect="none" points="211.65,67.7312 241.983,67.9258 " />
<polyline fill="none" vector-effect="none" points="241.983,67.9258 273.833,67.7416 " />
<polyline fill="none" vector-effect="none" points="273.833,67.7416 304.167,67.9156 " />
<polyline fill="none" vector-effect="none" points="304.167,67.9156 336.017,67.7517 " />
<polyline fill="none" vector-effect="none" points="336.017,67.7517 366.35,67.9055 " />
<polyline fill="none" vector-effect="none" points="366.35,67.9055 398.2,67.7617 " />
<polyline fill="none" vector-effect="none" points="398.2,67.7617 428.533,67.8957 " />
<polyline fill="none" vector-effect="none" points="428.533,67.8957 458.867,67.7416 " />
<polyline fill="none" vector-effect="none" points="458.867,67.7416 490.717,67.8861 " />
<polyline fill="none" vector-effect="none" points="490.717,67.8861 521.05,67.7512 " />
<polyline fill="none" vector-effect="none" points="521.05,67.7512 552.9,67.8766 " />
<polyline fill="none" vector-effect="none" points="552.9,67.8766 583.233,67.7605 " />
<polyline fill="none" vector-effect="none" points="583.233,67.7605 613.567,67.8961 " />
<polyline fill="none" vector-effect="none" points="613.567,67.8961 645.417,67.7697 " />
<polyline fill="none" vector-effect="none" points="645.417,67.7697 675.75,67.887 " />
<polyline fill="none" vector-effect="none" points="675.75,67.887 707.6,67.7786 " />
<polyline fill="none" vector-effect="none" points="707.6,67.7786 737.933,67.8781 " />
<polyline fill="none" vector-effect="none" points="737.933,67.8781 768.267,67.7598 " />
<polyline fill="none" vector-effect="none" points="768.267,67.7598 800.117,67.8694 " />
<polyline fill="none" vector-effect="none" points="800.117,67.8694 830.45,67.7684 " />
<polyline fill="none" vector-effect="none" points="830.45,67.7684 862.3,67.8609 " />
<polyline fill="none" vector-effect="none" points="862.3,67.8609 892.633,67.7769 " />
<polyline fill="none" vector-effect="none" points="892.633,67.7769 924.483,67.8527 " />
<polyline fill="none" vector-effect="none" points="924.483,67.8527 954.817,67.7851 " />
<polyline fill="none" vector-effect="none" points="954.817,67.7851 986.667,67.8448 " />
<polyline fill="none" vector-effect="none" points="986.667,67.8448 1017,67.7931 " />
<polyline fill="none" vector-effect="none" points="1017,67.7931 1047.33,67.8629 " />
<polyline fill="none" vector-effect="none" points="1047.33,67.8629 1079.18,67.8009 " />
<polyline fill="none" vector-effect="none" points="1079.18,67.8009 1109.52,67.8551 " />
<polyline fill="none" vector-effect="none" points="1109.52,67.8551 1141.37,67.8084 " />
<polyline fill="none" vector-effect="none" points="1141.37,67.8084 1171.7,67.8476 " />
<polyline fill="none" vector-effect="none" points="1171.7,67.8476 1203.55,67.8156 " />
<polyline fill="none" vector-effect="none" points="1203.55,67.8156 1233.88,67.8402 " />
<polyline fill="none" vector-effect="none" points="1233.88,67.8402 1265.73,67.8227 " />
<polyline fill="none" vector-effect="none" points="1265.73,67.8227 1296.07,67.8331 " />
<polyline fill="none" vector-effect="none" points="1296.07,67.8331 1326.4,67.8055 " />
<polyline fill="none" vector-effect="none" points="1326.4,67.8055 1358.25,67.8264 " />
<polyline fill="none" vector-effect="none" points="1358.25,67.8264 1388.58,67.8123 " />
<polyline fill="none" vector-effect="none" points="1388.58,67.8123 1420.43,67.8197 " />
<polyline fill="none" vector-effect="none" points="1420.43,67.8197 1450.77,67.819 " />
<polyline fill="none" vector-effect="none" points="1450.77,67.819 1482.62,67.8135 " />
<polyline fill="none" vector-effect="none" points="1482.62,67.8135 1512.95,67.8254 " />
<polyline fill="none" vector-effect="none" points="1512.95,67.8254 1544.8,67.8074 " />
<polyline fill="none" vector-effect="none" points="1544.8,67.8074 1575.13,67.8316 " />
<polyline fill="none" vector-effect="none" points="1575.13,67.8316 1590.86,67.9659 " />
<polyline fill="none" vector-effect="none" points="1590.86,67.9659 1591.36,67.965 " />
<polyline fill="none" vector-effect="none" points="1591.36,67.965 1835.81,67.9546 " />
<polyline fill="none" vector-effect="none" points="1835.81,67.9546 1835.81,67.9546 " />
</g>
</g>
</svg>
